<?xml version="1.0" encoding="UTF-8" standalone="no"?>
<!-- Created with Inkscape (http://www.inkscape.org/) -->

<svg
   xmlns:dc="http://purl.org/dc/elements/1.1/"
   xmlns:cc="http://creativecommons.org/ns#"
   xmlns:rdf="http://www.w3.org/1999/02/22-rdf-syntax-ns#"
   xmlns:svg="http://www.w3.org/2000/svg"
   xmlns="http://www.w3.org/2000/svg"
   xmlns:sodipodi="http://sodipodi.sourceforge.net/DTD/sodipodi-0.dtd"
   xmlns:inkscape="http://www.inkscape.org/namespaces/inkscape"
   width="307.3429mm"
   height="191.62889mm"
   viewBox="0 0 1089.0103 679"
   id="svg2"
   version="1.1"
   inkscape:version="0.91 r13725"
   sodipodi:docname="purpgreenbackground.svg">
  <defs
     id="defs4" />
  <sodipodi:namedview
     id="base"
     pagecolor="#ffffff"
     bordercolor="#666666"
     borderopacity="1.0"
     inkscape:pageopacity="0.0"
     inkscape:pageshadow="2"
     inkscape:zoom="0.35"
     inkscape:cx="-455.5"
     inkscape:cy="-326.21429"
     inkscape:document-units="px"
     inkscape:current-layer="layer1"
     showgrid="false"
     fit-margin-top="0"
     fit-margin-left="0"
     fit-margin-right="0"
     fit-margin-bottom="0"
     inkscape:window-width="1916"
     inkscape:window-height="1035"
     inkscape:window-x="4"
     inkscape:window-y="1"
     inkscape:window-maximized="1" />
  <metadata
     id="metadata7">
    <rdf:RDF>
      <cc:Work
         rdf:about="">
        <dc:format>image/svg+xml</dc:format>
        <dc:type
           rdf:resource="http://purl.org/dc/dcmitype/StillImage" />
        <dc:title></dc:title>
        <dc:creator>
          <cc:Agent>
            <dc:title>j4p4n</dc:title>
          </cc:Agent>
        </dc:creator>
        <cc:license
           rdf:resource="http://creativecommons.org/publicdomain/zero/1.0/" />
      </cc:Work>
      <cc:License
         rdf:about="http://creativecommons.org/publicdomain/zero/1.0/">
        <cc:permits
           rdf:resource="http://creativecommons.org/ns#Reproduction" />
        <cc:permits
           rdf:resource="http://creativecommons.org/ns#Distribution" />
        <cc:permits
           rdf:resource="http://creativecommons.org/ns#DerivativeWorks" />
      </cc:License>
    </rdf:RDF>
  </metadata>
  <g
     inkscape:label="Layer 1"
     inkscape:groupmode="layer"
     id="layer1"
     transform="translate(-336.21429,472.85209)">
    <g
       id="g4147"
       transform="translate(1000,-665.71429)">
      <path
         style="fill:#edeaed"
         d="m -663.78571,532.3622 0,-339.5 544.5,0 544.5,0 0,339.5 0,339.5 -544.5,0 -544.5,0 0,-339.5 z"
         id="path4187"
         inkscape:connector-curvature="0" />
      <path
         style="fill:#d3eacf"
         d="m -663.78571,532.3622 0,-339.5 544.5,0 544.5,0 0,339.5 0,339.5 -544.5,0 -544.5,0 0,-339.5 z m 467.71716,113.89919 c 37.83056,-34.43044 69.90784,-63.04677 71.28284,-63.59184 1.60517,-0.63631 14.68014,-0.73678 36.52922,-0.2807 28.23507,0.58939 34.20956,0.47732 35.0884,-0.65816 0.72163,-0.93235 0.86599,-10.32434 0.45298,-29.46969 l -0.60622,-28.10119 -2.69675,-3.39881 c -1.48321,-1.86934 -9.35019,-10.12756 -17.48219,-18.3516 l -14.78544,-14.95281 -60.76647,-43.29719 c -33.42155,-23.81346 -61.13448,-43.2972 -61.58428,-43.2972 -0.4498,0 -5.40214,11.28789 -11.0052,25.08419 l -10.18738,25.08419 10.1314,24.16581 c 14.65412,34.95358 26.76718,63.67438 28.43276,67.41581 1.26725,2.84665 1.26487,3.25 -0.0192,3.25 -0.80628,0 -29.91507,-6.075 -64.68618,-13.5 -34.77112,-7.425 -64.43101,-13.5 -65.91086,-13.5 -1.47986,0 -2.94564,0.66448 -3.25729,1.47663 -0.64453,1.67963 -1.85925,11.3469 -4.14948,33.02337 -0.87165,8.25 -2.23876,21.075 -3.03802,28.5 -0.79925,7.425 -2.36553,22.275 -3.48062,33 -1.11508,10.725 -2.66192,25.125 -3.43741,32 -2.47957,21.98216 -2.8045,27 -1.74838,27 0.54803,0 34.4562,-27.89101 75.35149,-61.98001 40.89529,-34.08901 74.91758,-61.98901 75.60508,-62 0.6875,-0.011 1.25,0.4906 1.25,1.11466 0,0.62406 -5.24566,11.98656 -11.65703,25.25 -6.41137,13.26344 -23.28637,48.15528 -37.5,77.53743 -14.21359,29.38214 -25.84293,53.79464 -25.84293,54.25 0,0.45535 0.21022,0.82792 0.46716,0.82792 0.25693,0 31.41943,-28.17036 69.25,-62.60081 z"
         id="path4185"
         inkscape:connector-curvature="0" />
      <path
         style="fill:#d2cbd5"
         d="m -663.78571,532.3622 0,-339.5 544.5,0 544.5,0 0,339.5 0,339.5 -544.5,0 -544.5,0 0,-339.5 z m 481.81679,158.5 c 46.49231,-12.1 86.36561,-22.00891 88.60734,-22.0198 2.24173,-0.0109 9.47587,-0.6689 16.07587,-1.46223 6.6,-0.79334 25.275,-3.03875 41.5,-4.9898 16.225,-1.95104 34.9,-4.19218 41.5,-4.98031 6.6,-0.78813 14.53802,-1.73995 17.64004,-2.11517 3.50204,-0.4236 6.59625,-1.48783 8.16251,-2.80745 2.50028,-2.10655 74.91653,-94.25927 76.58658,-97.45963 0.62258,-1.19308 -3.18421,-11.73699 -13.41833,-37.16561 -11.90153,-29.57164 -14.63608,-35.55327 -16.37491,-35.819 -1.14809,-0.17545 -15.92684,4.17362 -32.84166,9.66458 -66.78204,21.67909 -89.94355,29.11157 -94.30274,30.26154 l -4.54851,1.19991 -9.93974,-10.40352 c -21.92794,-22.95107 -23.24882,-24.00751 -85.72971,-68.56685 -33.42155,-23.83516 -61.13448,-43.33666 -61.58428,-43.33666 -0.4498,0 -5.40214,11.28789 -11.0052,25.08419 l -10.18738,25.08419 10.1314,24.16581 c 14.65412,34.95358 26.76718,63.67438 28.43276,67.41581 1.26725,2.84665 1.26487,3.25 -0.0192,3.25 -0.80628,0 -29.91507,-6.075 -64.68618,-13.5 -34.77112,-7.425 -64.43101,-13.5 -65.91086,-13.5 -1.47986,0 -2.94564,0.66448 -3.25729,1.47663 -0.64453,1.67963 -1.85925,11.3469 -4.14948,33.02337 -0.87165,8.25 -2.23876,21.075 -3.03802,28.5 -0.79925,7.425 -2.36553,22.275 -3.48062,33 -1.11508,10.725 -2.66192,25.125 -3.43741,32 -2.62097,23.23569 -2.83832,27 -1.55897,27 0.6522,0 34.20723,-27.55729 74.56674,-61.23842 40.3595,-33.68112 73.84655,-61.39362 74.41567,-61.58333 0.56911,-0.1897 1.03475,0.26956 1.03475,1.02058 0,0.75103 -11.62947,25.42603 -25.84326,54.83334 -14.2138,29.40731 -31.3138,64.79246 -38,78.63368 -6.68617,13.84122 -12.1567,25.65372 -12.1567,26.25 0,0.59628 0.5142,1.08415 1.14266,1.08415 0.62846,0 39.18182,-9.9 85.67413,-22 z"
         id="path4183"
         inkscape:connector-curvature="0" />
      <path
         style="fill:#c7b0cf"
         d="m -663.78571,532.3622 0,-339.5 544.5,0 544.5,0 0,339.5 0,339.5 -544.5,0 -544.5,0 0,-339.5 z m 481.81679,158.5 c 46.49231,-12.1 86.36561,-22.00891 88.60734,-22.0198 2.24173,-0.0109 9.47587,-0.6689 16.07587,-1.46223 6.6,-0.79334 25.275,-3.03875 41.5,-4.9898 16.225,-1.95104 34.9,-4.19218 41.5,-4.98031 6.6,-0.78813 14.53802,-1.73995 17.64004,-2.11517 3.50204,-0.4236 6.59625,-1.48783 8.16251,-2.80745 2.4927,-2.10017 74.90262,-94.23991 76.59066,-97.45963 0.62627,-1.19454 -2.77894,-10.71592 -12.04014,-33.66561 -7.10236,-17.6 -13.85685,-34.57855 -15.00997,-37.73012 l -2.09658,-5.73011 2.63067,-9.76989 c 2.55144,-9.47566 19.99969,-74.50484 29.12519,-108.5489 2.47369,-9.22847 4.49762,-17.17523 4.49762,-17.65949 0,-1.06752 0.267,-1.13905 -49.5,13.26047 -90.80948,26.27468 -96.03374,27.71722 -98.35159,27.15716 -1.32545,-0.32027 -14.57765,2.33769 -30.36998,6.09122 -20.13655,4.78608 -28.21929,6.33436 -28.73258,5.50384 -0.39281,-0.63558 -1.70637,-6.19978 -2.91901,-12.36489 -2.32166,-11.80335 -21.9091,-107.30692 -27.40652,-133.62755 -1.77118,-8.48004 -3.67218,-15.56816 -4.22445,-15.75138 -0.55227,-0.18321 -19.67727,37.05955 -42.5,82.7617 -22.82273,45.70214 -42.20187,83.61526 -43.06475,84.25137 -0.86289,0.63611 -5.74653,11.50657 -10.85254,24.15657 -5.106,12.65 -9.64728,23.38728 -10.09172,23.86061 -0.44445,0.47334 -32.13494,-20.11416 -70.42332,-45.75 -38.28838,-25.63583 -70.26448,-46.61061 -71.05801,-46.61061 -0.79352,0 -1.25169,0.5625 -1.01816,1.25 0.23354,0.6875 6.32549,21.275 13.53768,45.75 7.21219,24.475 15.73322,53.275 18.93563,64 15.03513,50.35333 15.26294,51.2138 14.18509,53.57942 -0.56722,1.2449 -12.64456,14.35881 -26.83854,29.14203 -14.19397,14.78321 -26.80916,27.99882 -28.03375,29.36801 l -2.22652,2.48945 2.84129,6.96055 c 33.27618,81.51957 36.41815,88.46054 40.04342,88.46054 0.89799,0 34.37798,-27.27774 74.39998,-60.61721 40.022,-33.33946 72.93381,-60.45066 73.13737,-60.2471 0.41474,0.41474 -2.41622,6.41065 -24.95982,52.86431 -8.6746,17.875 -17.91872,37 -20.5425,42.5 -2.62378,5.5 -10.21465,21.23961 -16.8686,34.97692 -6.65396,13.73731 -12.0981,25.54981 -12.0981,26.25 0,0.70019 0.7392,1.27308 1.64266,1.27308 0.90346,0 39.68182,-9.9 86.17413,-22 z M 190.21429,515.25233 c 0,-0.88542 -1.55348,-10.67292 -3.45217,-21.75 -1.89869,-11.07707 -5.96439,-34.99013 -9.03488,-53.14013 -3.0705,-18.15 -5.90452,-33.96128 -6.29783,-35.13617 -0.63507,-1.89703 -5.62336,2.17853 -44.56034,36.40696 -30.16227,26.51483 -43.42541,38.7754 -42.5,39.2874 0.73987,0.40935 4.04522,1.64752 7.34522,2.75149 18.4135,6.16 91.38295,31.15848 93.5,32.03201 3.62565,1.496 5,1.37188 5,-0.45156 z"
         id="path4181"
         inkscape:connector-curvature="0" />
      <path
         style="fill:#a7cfa5"
         d="m -663.78571,532.3622 0,-339.5 544.5,0 544.5,0 0,339.5 0,339.5 -544.5,0 -544.5,0 0,-339.5 z m 481.81679,158.5 c 46.49231,-12.1 86.36561,-22.00891 88.60734,-22.0198 2.24173,-0.0109 9.47587,-0.6689 16.07587,-1.46223 6.6,-0.79334 25.275,-3.03875 41.5,-4.9898 16.225,-1.95104 34.9,-4.19218 41.5,-4.98031 6.6,-0.78813 14.53802,-1.73995 17.64004,-2.11517 3.50204,-0.4236 6.59625,-1.48783 8.16251,-2.80745 2.50028,-2.10655 74.91653,-94.25927 76.58658,-97.45963 0.62288,-1.19365 -3.19412,-11.72472 -13.47073,-37.16561 -7.88694,-19.525 -14.35756,-36.82086 -14.37915,-38.43525 -0.0216,-1.61439 5.41905,-23.21439 12.0903,-48 6.67125,-24.78561 14.77125,-54.88301 18,-66.8831 6.19618,-23.02898 6.51628,-24.68165 4.78046,-24.68165 -0.59949,0 -11.06199,2.8929 -23.25,6.42866 -20.02265,5.8086 -57.83647,16.73071 -105.64124,30.51332 -16.56232,4.77508 -17.56794,4.9485 -19.13093,3.29902 -1.45894,-1.53967 -87.85006,-143.30689 -90.79319,-148.991 -0.64076,-1.2375 -1.82366,-2.25 -2.62866,-2.25 -0.94005,0 -16.52803,30.13888 -43.57452,84.25 -23.16098,46.3375 -42.27648,84.42747 -42.47888,84.64437 -0.2024,0.21691 -2.32877,-0.35445 -4.72527,-1.26968 -2.3965,-0.91524 -10.61904,-3.40594 -18.2723,-5.5349 -7.65326,-2.12896 -38.21502,-10.71965 -67.91502,-19.09042 -29.7,-8.37077 -57.825,-16.2865 -62.5,-17.59052 -8.23276,-2.2964 -12,-2.37418 -12,-0.24775 0,1.17545 2.53237,9.83589 27.00049,92.3389 20.80358,70.14668 20.05582,67.5 19.0706,67.5 -0.42223,0 -26.82346,-25.72055 -58.66939,-57.15677 -31.84594,-31.43622 -62.75206,-61.92372 -68.68028,-67.75 -8.0176,-7.87974 -10.99541,-10.24566 -11.62508,-9.23633 -0.46558,0.7463 -1.56045,6.5963 -2.43305,13 -0.87259,6.40371 -3.65467,25.8181 -6.18239,43.1431 -2.52772,17.325 -5.92846,40.65556 -7.5572,51.84568 l -2.96134,20.34569 -24.23118,26.65221 c -13.32715,14.65872 -31.33841,34.46898 -40.02502,44.02281 -8.6866,9.55383 -15.6247,17.87798 -15.41799,18.49812 0.36173,1.08519 10.13416,7.38555 64.04188,41.28827 20.80206,13.08247 25.0367,15.39114 26.10391,14.23146 0.70062,-0.76133 13.19241,-14.88424 27.75954,-31.38424 14.56712,-16.5 27.18749,-30.57994 28.04526,-31.28876 1.30494,-1.07835 1.96545,-0.91507 4.04536,1 1.36718,1.25882 18.57471,20.73876 38.23896,43.28876 19.66425,22.55 36.11792,41.40439 36.56371,41.89865 0.46775,0.51862 1.92583,0.16787 3.44783,-0.82938 1.45052,-0.95042 34.79506,-28.52088 74.09897,-61.2677 39.30391,-32.74681 71.62902,-59.37229 71.83359,-59.16772 0.41662,0.41662 -2.40094,6.38479 -24.95798,52.86615 -8.6746,17.875 -17.91872,37 -20.5425,42.5 -2.62378,5.5 -10.21465,21.23961 -16.8686,34.97692 -6.65396,13.73731 -12.0981,25.54981 -12.0981,26.25 0,0.70019 0.7392,1.27308 1.64266,1.27308 0.90346,0 39.68182,-9.9 86.17413,-22 z M 190.21429,515.25233 c 0,-0.88542 -1.55348,-10.67292 -3.45217,-21.75 -1.89869,-11.07707 -5.96439,-34.99013 -9.03488,-53.14013 -3.0705,-18.15 -5.90452,-33.96128 -6.29783,-35.13617 -0.63507,-1.89703 -5.62336,2.17853 -44.56034,36.40696 -30.16227,26.51483 -43.42541,38.7754 -42.5,39.2874 0.73987,0.40935 4.04522,1.64752 7.34522,2.75149 18.4135,6.16 91.38295,31.15848 93.5,32.03201 3.62565,1.496 5,1.37188 5,-0.45156 z"
         id="path4179"
         inkscape:connector-curvature="0" />
      <path
         style="fill:#bc9bc4"
         d="m -663.78571,532.3622 0,-339.5 544.5,0 544.5,0 0,339.5 0,339.5 -544.5,0 -544.5,0 0,-339.5 z m 568.5,275.02285 c 13.2,-0.78937 36.6,-2.14725 52,-3.01751 15.4,-0.87026 30.475,-1.90248 33.5,-2.29382 l 5.5,-0.71152 5.12252,-20.5 c 2.81738,-11.275 10.85768,-43.9 17.86733,-72.5 7.00964,-28.6 13.30779,-52.59971 13.99587,-53.33268 1.321,-1.40717 6.09957,-0.53992 51.26428,9.30386 3.7125,0.80915 16.425,3.48404 28.25,5.94419 11.825,2.46016 36.52909,7.64812 54.89799,11.52882 18.36889,3.8807 34.24104,7.05581 35.27144,7.05581 1.03039,0 2.32197,-1.0125 2.87017,-2.25 0.54819,-1.2375 5.86659,-23.38561 11.81866,-49.21802 l 10.82193,-46.96803 22.40991,-14.68722 c 12.32544,-8.07797 30.2849,-19.86659 39.9099,-26.19693 9.625,-6.33035 30.26276,-19.89773 45.86169,-30.14973 15.59891,-10.25201 28.19891,-18.79268 28.00001,-18.97926 -0.1989,-0.18659 -5.0867,0.28695 -10.8617,1.0523 -5.775,0.76535 -14.1,1.81857 -18.5,2.34048 -4.4,0.52192 -24.2,3.01226 -44,5.53409 -102.66194,13.07558 -96.24906,12.39654 -97.01133,10.27232 -0.24671,-0.6875 -2.72426,-14.75 -5.50568,-31.25 -4.44497,-26.3686 -8.63633,-50.94368 -13.55296,-79.46458 -0.80255,-4.65551 -1.88355,-8.88894 -2.40222,-9.40761 -1.18656,-1.18656 3.00244,-4.68296 -46.44486,38.76588 -23.09294,20.29152 -42.15203,36.39907 -42.35354,35.79455 -0.38303,-1.14911 0.033,-2.75508 17.66559,-68.18824 15.76739,-58.51163 17.41108,-65.10064 16.4604,-65.98422 -0.47047,-0.43727 -8.2804,1.35894 -17.3554,3.99158 -15.49897,4.49623 -74.87785,21.65226 -113.98123,32.932 -16.56228,4.77755 -17.56794,4.95111 -19.13093,3.30164 -1.45894,-1.53967 -87.85006,-143.30689 -90.79319,-148.991 -0.64076,-1.2375 -1.82366,-2.25 -2.62866,-2.25 -0.94005,0 -16.52803,30.13888 -43.57452,84.25 -23.16098,46.3375 -42.27648,84.42747 -42.47888,84.64437 -0.2024,0.21691 -2.32877,-0.35445 -4.72527,-1.26968 -2.3965,-0.91524 -10.61904,-3.40594 -18.2723,-5.5349 -7.65326,-2.12896 -38.21502,-10.71965 -67.91502,-19.09042 -29.7,-8.37077 -57.825,-16.2865 -62.5,-17.59052 -8.23276,-2.2964 -12,-2.37418 -12,-0.24775 0,1.17545 2.53237,9.83589 27.00049,92.3389 20.80358,70.14668 20.05582,67.5 19.0706,67.5 -0.42223,0 -26.82346,-25.72055 -58.66939,-57.15677 -31.84594,-31.43622 -62.75206,-61.92372 -68.68028,-67.75 -8.0176,-7.87974 -10.99541,-10.24566 -11.62508,-9.23633 -0.46558,0.7463 -1.56045,6.5963 -2.43305,13 -0.87259,6.40371 -3.65467,25.8181 -6.18239,43.1431 -2.52772,17.325 -5.92846,40.65556 -7.5572,51.84568 l -2.96134,20.34569 -24.23118,26.65221 c -13.32715,14.65872 -31.33841,34.46898 -40.02502,44.02281 -8.6866,9.55383 -15.6247,17.87798 -15.41799,18.49812 0.36173,1.08519 10.13416,7.38555 64.04188,41.28827 20.80206,13.08247 25.0367,15.39114 26.10391,14.23146 0.70062,-0.76133 13.19241,-14.88424 27.75954,-31.38424 14.56712,-16.5 27.18749,-30.57994 28.04526,-31.28876 1.30494,-1.07835 1.96545,-0.91507 4.04536,1 4.0692,3.74668 73.71588,83.72186 73.71588,84.64783 0,0.4685 17.6625,9.75806 39.25,20.64346 l 39.25,19.79164 63.65654,44.81078 c 35.0111,24.64593 65.14484,45.71587 66.96387,46.82208 2.75121,1.67311 4.49042,1.92889 10.34346,1.52117 3.86987,-0.26957 17.83613,-1.13598 31.03613,-1.92535 z"
         id="path4177"
         inkscape:connector-curvature="0" />
      <path
         style="fill:#ac8eb2"
         d="m -663.78571,532.3622 0,-339.5 544.5,0 544.5,0 0,339.5 0,339.5 -544.5,0 -544.5,0 0,-339.5 z m 568.5,275.02285 c 13.2,-0.78937 36.6,-2.14725 52,-3.01751 15.4,-0.87026 30.475,-1.90248 33.5,-2.29382 l 5.5,-0.71152 5.12252,-20.5 c 2.81738,-11.275 10.85768,-43.9 17.86733,-72.5 7.00964,-28.6 13.30779,-52.59971 13.99587,-53.33268 1.321,-1.40717 6.09957,-0.53992 51.26428,9.30386 3.7125,0.80915 16.425,3.48404 28.25,5.94419 11.825,2.46016 36.52909,7.64812 54.89799,11.52882 18.36889,3.8807 34.24104,7.05581 35.27144,7.05581 1.03039,0 2.32197,-1.0125 2.87017,-2.25 0.54819,-1.2375 5.86659,-23.38561 11.81866,-49.21802 l 10.82193,-46.96803 22.40991,-14.68722 c 12.32544,-8.07797 30.2849,-19.86659 39.9099,-26.19693 9.625,-6.33035 30.26276,-19.89773 45.86169,-30.14973 15.59891,-10.25201 28.19891,-18.79268 28.00001,-18.97926 -0.1989,-0.18659 -5.0867,0.28695 -10.8617,1.0523 -5.775,0.76535 -14.1,1.81857 -18.5,2.34048 -4.4,0.52192 -24.2,3.01226 -44,5.53409 -102.66194,13.07558 -96.24906,12.39654 -97.01133,10.27232 -0.24671,-0.6875 -2.72426,-14.75 -5.50568,-31.25 -4.44497,-26.3686 -8.63633,-50.94368 -13.55296,-79.46458 -0.80255,-4.65551 -1.88355,-8.88894 -2.40222,-9.40761 -1.18656,-1.18656 3.00244,-4.68296 -46.44486,38.76588 -23.09294,20.29152 -42.15203,36.39907 -42.35354,35.79455 -0.38303,-1.14911 0.033,-2.75508 17.66559,-68.18824 16.67647,-61.88516 17.45372,-65.05128 16.26201,-66.24299 -0.73839,-0.73839 -5.93289,0.35498 -17.3554,3.65308 -8.96589,2.58877 -32.72661,9.44284 -52.80161,15.23125 -20.075,5.78841 -45.70144,13.18816 -56.94764,16.44388 -11.24621,3.25572 -20.79704,5.5701 -21.22407,5.14307 -0.67683,-0.67683 2.06347,-30.73549 5.12605,-56.22829 0.56164,-4.675 1.24111,-10.975 1.50994,-14 0.69005,-7.76474 3.39433,-33.89756 4.55321,-44 0.53628,-4.675 1.43076,-13.225 1.98772,-19 0.55696,-5.775 1.18096,-11.4 1.38666,-12.5 0.20571,-1.1 0.67988,-5.6 1.05372,-10 0.37384,-4.4 0.89595,-9.31143 1.16026,-10.91428 0.26431,-1.60286 -0.0154,-3.22083 -0.62168,-3.5955 -0.60623,-0.37468 -4.33817,-0.10809 -8.29321,0.5924 -7.71658,1.36673 -17.39552,3.08528 -35.69096,6.33714 -6.325,1.12421 -21.625,3.86244 -34,6.08494 -12.375,2.22251 -27.45,4.48062 -33.5,5.01803 -6.05,0.53741 -16.85,1.67013 -24,2.51715 -14.01088,1.65978 -29.39229,3.47197 -50,5.89084 -7.15,0.83924 -19.29111,2.28002 -26.98025,3.20171 l -13.98025,1.67582 -52.51975,25.84369 c -28.88586,14.21403 -53.10734,26.18217 -53.82551,26.59587 -0.71817,0.41371 -7.16975,13.12719 -14.33685,28.25219 -7.1671,15.125 -13.73676,28.2875 -14.59923,29.25 -0.86247,0.9625 -2.62564,1.75 -3.91814,1.75 -1.29251,0 -8.31026,1.54456 -15.59502,3.43235 -7.28475,1.8878 -26.745,6.87208 -43.245,11.07618 -16.5,4.20411 -30.60859,8.23421 -31.35241,8.95578 -0.75982,0.73708 -2.20265,7.1668 -3.29281,14.67382 -1.06722,7.34903 -4.1639,28.66187 -6.88151,47.36187 -2.71761,18.7 -5.8477,40.3 -6.95576,48 -1.10806,7.7 -2.25624,15.43882 -2.55152,17.19737 -0.33423,1.9905 -2.18203,4.82141 -4.89544,7.5 -7.78735,7.6874 -74.3087,81.44485 -75.55524,83.77403 -0.96824,1.80917 -0.9408,2.52026 0.13707,3.55248 3.39049,3.24691 89.19832,56.55552 90.33321,56.12002 0.70475,-0.27044 13.737,-14.58845 28.96055,-31.8178 18.13206,-20.52107 28.33846,-31.3261 29.59056,-31.3261 1.26888,0 14.50217,14.39293 39.36807,42.81792 l 37.45669,42.81793 38.81927,19.58053 38.81927,19.58054 63.65654,44.8094 c 35.0111,24.64518 65.14484,45.7145 66.96387,46.82071 2.75121,1.67311 4.49042,1.92889 10.34346,1.52117 3.86987,-0.26957 17.83613,-1.13598 31.03613,-1.92535 z"
         id="path4175"
         inkscape:connector-curvature="0" />
      <path
         style="fill:#91ae93"
         d="m -663.78571,532.3622 0,-339.5 254.66667,0 c 140.06666,0 254.46819,0.19848 254.2256,0.44106 -1.5239,1.5239 -84.65521,44.72659 -109.87579,57.10158 -16.76594,8.22655 -42.6387,21.03236 -57.49503,28.45736 l -27.0115,13.5 -13.69113,29 c -10.82834,22.93614 -14.12204,29.06673 -15.75194,29.31915 -1.19795,0.18553 -25.32267,-11.46948 -57.61813,-27.83615 -30.55653,-15.48542 -56.1216,-27.93878 -56.81128,-27.67413 -0.68967,0.26466 -3.62916,8.06593 -6.53219,17.33616 -2.90304,9.27023 -6.55041,20.90497 -8.10528,25.85497 -11.3746,36.21163 -13.25262,42.58072 -12.71424,43.11909 0.56024,0.56025 8.03835,-0.32056 35.64171,-4.19806 10.48249,-1.47249 12.56749,-1.11259 11.51854,1.98829 -0.20293,0.59987 -2.66839,17.06568 -5.47881,36.59068 -13.46025,93.5133 -12.5784,88 -14.07561,88 -0.49037,0 -0.89159,-0.197 -0.89159,-0.43777 0,-0.24078 -4.05896,-17.22828 -9.01992,-37.75 -4.96095,-20.52173 -11.28698,-46.73619 -14.05783,-58.25435 -2.77085,-11.51817 -5.36672,-21.52969 -5.76861,-22.24782 -0.53065,-0.94822 -5.78515,2.0211 -19.19217,10.84549 -10.15381,6.68315 -26.18115,17.21779 -35.61631,23.41032 -10.09014,6.6224 -17.42274,12.10321 -17.80537,13.30878 -0.3578,1.1273 0.70301,11.40418 2.35735,22.8375 1.65434,11.43332 5.96673,41.93785 9.58309,67.78785 3.61636,25.85 7.42112,52.85 8.45502,60 1.0339,7.15 1.76379,14.8 1.62199,17 -0.14181,2.2 -5.54114,18.4 -11.99852,36 -6.45739,17.6 -14.46218,39.425 -17.78843,48.5 -3.32625,9.075 -6.25753,17.06011 -6.51396,17.74469 -0.49527,1.32222 0.54303,0.96003 28.74367,-10.02664 9.075,-3.53552 32.25,-12.54096 51.5,-20.01209 19.25,-7.47112 36.67305,-14.28633 38.71788,-15.14491 2.04484,-0.85858 5.11192,-1.56105 6.81574,-1.56105 1.70383,0 3.87441,-0.4156 4.82352,-0.92355 0.94912,-0.50795 14.06201,-14.90795 29.13976,-32 15.07776,-17.09205 27.71121,-31.07645 28.07434,-31.07645 0.36314,0 17.1607,18.836 37.32791,41.85777 l 36.66767,41.85777 40.21659,20.29187 40.21659,20.29187 63.65654,44.80822 c 35.0111,24.64453 65.14484,45.71332 66.96387,46.81953 2.75121,1.67311 4.49042,1.92889 10.34346,1.52117 9.86741,-0.68736 49.8848,-3.06946 83.03613,-4.94286 15.4,-0.87026 30.475,-1.90248 33.5,-2.29382 l 5.5,-0.71152 5.12252,-20.5 c 2.81738,-11.275 10.85768,-43.9 17.86733,-72.5 7.00964,-28.6 13.30779,-52.59971 13.99587,-53.33268 1.03838,-1.10612 3.78099,-0.80038 16.13267,1.79843 17.48272,3.67838 25.3241,5.35183 34.88161,7.44417 3.85,0.84284 16.675,3.5453 28.5,6.00545 11.825,2.46016 36.52909,7.64812 54.89799,11.52882 18.36889,3.8807 34.24104,7.05581 35.27144,7.05581 1.03039,0 2.32197,-1.0125 2.87017,-2.25 0.54819,-1.2375 5.86659,-23.38561 11.81866,-49.21802 l 10.82193,-46.96803 22.40991,-14.68722 c 12.32544,-8.07797 30.2849,-19.86659 39.9099,-26.19693 9.625,-6.33035 30.26276,-19.89773 45.86169,-30.14973 15.59891,-10.25201 28.19891,-18.79268 28.00001,-18.97926 -0.1989,-0.18659 -5.0867,0.28695 -10.8617,1.0523 -5.775,0.76535 -14.1,1.81857 -18.5,2.34048 -4.4,0.52192 -24.2,3.01226 -44,5.53409 -102.66194,13.07558 -96.24906,12.39654 -97.01133,10.27232 -0.24671,-0.6875 -2.72426,-14.75 -5.50568,-31.25 -4.44497,-26.3686 -8.63633,-50.94368 -13.55296,-79.46458 -0.80255,-4.65551 -1.88355,-8.88894 -2.40222,-9.40761 -1.18656,-1.18656 3.00244,-4.68296 -46.44486,38.76588 -23.09294,20.29152 -42.15203,36.39907 -42.35354,35.79455 -0.38303,-1.14911 0.033,-2.75508 17.66559,-68.18824 17.91096,-66.46626 17.55795,-64.97562 15.803,-66.73057 -1.35826,-1.35826 -2.29405,-1.28012 -8.85835,0.73969 -4.03681,1.24212 -8.68965,2.6027 -10.33965,3.02352 -4.23,1.07882 -82.2602,23.59258 -115.88262,33.43517 -4.88543,1.43016 -9.11278,2.37012 -9.39411,2.0888 -0.53187,-0.53188 7.83642,-13.35453 56.01286,-85.82792 15.80487,-23.77578 28.74237,-43.97047 28.75,-44.87708 0.0097,-1.147 -10.09996,-7.05147 -33.23613,-19.41142 -18.2875,-9.76966 -34.4469,-18.59212 -35.90979,-19.60546 -2.86161,-1.98225 -4.46738,-1.77781 -48.34021,6.15437 -40.84772,7.38525 -62.97664,11.08237 -64.74728,10.81746 -1.72731,-0.25842 -2.63086,-2.44165 -5.75406,-13.90344 -2.03774,-7.47828 -4.00463,-14.79078 -4.37087,-16.25 l -0.66589,-2.65312 57.51905,0 c 37.67937,0 57.51905,0.34492 57.51905,1 0,0.55 0.87344,1 1.94098,1 1.06754,0 2.21627,0.44542 2.55273,0.98983 0.35688,0.57744 1.50159,0.16082 2.74758,-1 2.11867,-1.97384 3.89005,-1.98983 220.44727,-1.98983 l 218.31144,0 0,339.5 0,339.5 -544.5,0 -544.5,0 0,-339.5 z"
         id="path4173"
         inkscape:connector-curvature="0" />
      <path
         style="fill:#919393"
         d="m -663.78571,532.3622 0,-339.5 254.66667,0 c 140.06666,0 254.46819,0.19848 254.2256,0.44106 -1.5239,1.5239 -84.65521,44.72659 -109.87579,57.10158 -16.76594,8.22655 -42.6387,21.03236 -57.49503,28.45736 l -27.0115,13.5 -13.69113,29 c -10.82834,22.93614 -14.12204,29.06673 -15.75194,29.31915 -1.19795,0.18553 -25.32267,-11.46948 -57.61813,-27.83615 -30.55653,-15.48542 -56.1216,-27.93878 -56.81128,-27.67413 -0.68967,0.26466 -3.62916,8.06593 -6.53219,17.33616 -2.90304,9.27023 -6.55041,20.90497 -8.10528,25.85497 -11.3746,36.21163 -13.25262,42.58072 -12.71424,43.11909 0.56024,0.56025 8.03835,-0.32056 35.64171,-4.19806 10.48249,-1.47249 12.56749,-1.11259 11.51854,1.98829 -0.20293,0.59987 -2.66839,17.06568 -5.47881,36.59068 -13.46025,93.5133 -12.5784,88 -14.07561,88 -0.49037,0 -0.89159,-0.197 -0.89159,-0.43777 0,-0.24078 -4.05896,-17.22828 -9.01992,-37.75 -4.96095,-20.52173 -11.28698,-46.73619 -14.05783,-58.25435 -2.77085,-11.51817 -5.36672,-21.52969 -5.76861,-22.24782 -0.53065,-0.94822 -5.78515,2.0211 -19.19217,10.84549 -10.15381,6.68315 -26.18115,17.21779 -35.61631,23.41032 -10.09014,6.6224 -17.42274,12.10321 -17.80537,13.30878 -0.3578,1.1273 0.70301,11.40418 2.35735,22.8375 1.65434,11.43332 5.96673,41.93785 9.58309,67.78785 3.61636,25.85 7.42112,52.85 8.45502,60 1.0339,7.15 1.76379,14.8 1.62199,17 -0.14181,2.2 -5.54114,18.4 -11.99852,36 -6.45739,17.6 -14.46218,39.425 -17.78843,48.5 -3.32625,9.075 -6.25753,17.06011 -6.51396,17.74469 -0.49527,1.32222 0.54303,0.96003 28.74367,-10.02664 9.075,-3.53552 32.25,-12.54096 51.5,-20.01209 19.25,-7.47112 36.67305,-14.28633 38.71788,-15.14491 2.04484,-0.85858 5.11192,-1.56105 6.81574,-1.56105 1.70383,0 3.87441,-0.4156 4.82352,-0.92355 0.94912,-0.50795 14.06201,-14.90795 29.13976,-32 15.07776,-17.09205 27.71381,-31.07645 28.08011,-31.07645 0.54871,0 41.81162,46.68292 69.29287,78.39468 l 6.86989,7.92745 -0.65336,14.08894 c -0.89982,19.40349 -3.23756,65.9862 -5.16406,102.90099 -0.88441,16.94664 -1.33439,31.90228 -0.99995,33.23477 0.35631,1.41967 1.53329,2.62063 2.84283,2.90076 1.22912,0.26293 14.38477,1.1865 29.23477,2.05238 14.85,0.86587 37.35,2.20831 50,2.98319 12.65,0.77489 32.23643,1.93915 43.52541,2.58726 l 20.52541,1.17838 33.47459,-13.77399 c 18.41102,-7.57569 35.56276,-14.12175 38.11497,-14.54681 2.55222,-0.42505 16.05222,-1.49084 30,-2.36841 13.94779,-0.87758 35.70962,-2.2455 48.35962,-3.03982 12.65,-0.79431 29.17197,-1.74611 36.71548,-2.11511 10.76813,-0.52672 14.02475,-1.01835 15.15468,-2.28777 0.79156,-0.88929 2.81214,-7.24189 4.49018,-14.11689 1.67803,-6.875 8.21193,-33.425 14.51976,-59 6.30784,-25.575 12.8843,-52.35 14.61436,-59.5 1.73006,-7.15 3.51575,-13.37919 3.96819,-13.84264 0.45245,-0.46345 1.79577,-0.32183 2.98516,0.31471 1.18939,0.63654 26.22686,19.12823 55.63884,41.09264 29.41197,21.96441 54.02465,39.9314 54.69483,39.92665 0.67019,-0.005 12.95161,-10.01725 27.29206,-22.25 14.34045,-12.23275 27.54666,-23.37099 29.34714,-24.75164 3.762,-2.88479 2.97669,0.0937 20.56313,-77.98972 3.73894,-16.60084 4.85322,-20 6.55616,-20 0.9901,0 16.14473,-9.84425 109.96003,-71.42862 20.6565,-13.55983 31.6081,-21.33382 31.8141,-22.58326 0.1728,-1.04792 -6.1779,-14.63645 -14.1125,-30.19672 -7.9347,-15.56027 -23.80087,-46.7414 -35.25814,-69.2914 -28.9882,-57.05409 -32.13836,-62.95912 -33.76884,-63.30026 -0.78931,-0.16515 -25.9015,13.50775 -55.80487,30.38421 -29.90336,16.87646 -55.39446,31.15187 -56.64688,31.72313 -4.13558,1.88637 -4.55983,-0.0283 -2.75829,-12.44856 2.45551,-16.9288 4.13473,-28.93693 7.53158,-53.85852 1.68674,-12.375 4.42191,-32.1337 6.07817,-43.90822 1.65626,-11.77452 2.87906,-22.09529 2.71734,-22.93505 -0.17583,-0.913 -14.5323,13.62335 -35.71077,36.15823 -31.72021,33.75177 -35.73841,37.68536 -38.49881,37.68811 -1.69515,0.002 -19.50709,4.74217 -39.58209,10.53441 -89.64881,25.86636 -102.42685,29.48666 -103.1775,29.23249 -0.79807,-0.27023 4.14737,-7.85849 56.2536,-86.31517 15.35814,-23.12486 27.9239,-42.76663 27.9239,-43.64839 0,-1.08263 -10.7964,-7.37092 -33.25,-19.36622 -18.2875,-9.76966 -34.4469,-18.59212 -35.90979,-19.60546 -2.86161,-1.98225 -4.46738,-1.77781 -48.34021,6.15437 -40.84772,7.38525 -62.97664,11.08237 -64.74728,10.81746 -1.72731,-0.25842 -2.63086,-2.44165 -5.75406,-13.90344 -2.03774,-7.47828 -4.00463,-14.79078 -4.37087,-16.25 l -0.66589,-2.65312 57.51905,0 c 37.67937,0 57.51905,0.34492 57.51905,1 0,0.55 0.87344,1 1.94098,1 1.06754,0 2.21627,0.44542 2.55273,0.98983 0.35688,0.57744 1.50159,0.16082 2.74758,-1 2.11867,-1.97384 3.89005,-1.98983 220.44727,-1.98983 l 218.31144,0 0,339.5 0,339.5 -544.5,0 -544.5,0 0,-339.5 z m 1032.9844,57.62975 c 4.6665,-3.64636 9.1667,-7.30475 10.0005,-8.12975 0.8338,-0.825 4.4406,-3.75 8.0151,-6.5 10.1832,-7.8343 10.2306,-7.89944 8.5549,-11.73905 -0.7828,-1.79352 -3.0783,-7.53595 -5.1011,-12.76095 -2.0228,-5.225 -4.0648,-10.4 -4.5379,-11.5 -2.1091,-4.90409 -11.7425,-31.19926 -12.0898,-33 -0.5522,-2.86284 -4.2738,17.1133 -4.1919,22.5 0.038,2.475 -0.2111,3.70375 -0.5528,2.73056 -0.83,-2.364 -6.2628,29.07247 -5.5768,32.26944 0.4227,1.96982 0.3572,2.09173 -0.3086,0.57485 -1.0773,-2.45435 -3.4839,11.12286 -2.6939,15.19817 0.3805,1.96302 0.2988,2.20324 -0.2917,0.85748 -0.5823,-1.32678 -1.3455,1.13048 -2.6291,8.46455 -0.9948,5.68372 -2.0445,10.9484 -2.3326,11.69927 -0.2882,0.75088 0.7755,0.15022 2.3637,-1.33479 1.5882,-1.48502 6.7056,-5.68342 11.372,-9.32978 z"
         id="path4171"
         inkscape:connector-curvature="0" />
      <path
         style="fill:#76b179"
         d="m -663.78571,765.95068 c 0,-88.12123 0.2258,-105.87837 1.34426,-105.71422 0.73934,0.10852 12.23407,10.29935 25.54384,22.6463 13.30977,12.34696 24.86554,22.82169 25.67947,23.27719 1.50172,0.84041 3.34184,0.26121 20.93243,-6.58877 4.95,-1.92759 21.375,-8.3128 36.5,-14.18936 15.125,-5.87657 30.2,-11.74161 33.5,-13.03344 38.70193,-15.1504 39.5225,-15.43316 41.76797,-14.39272 1.22762,0.56881 3.27196,2.46798 4.54298,4.22037 1.27102,1.75239 5.14625,7.12469 8.61162,11.93843 3.46537,4.81374 7.0459,9.76374 7.95673,11 0.91082,1.23626 17.658,24.29774 37.21594,51.24774 19.55795,26.95 36.89913,50.8 38.53597,53 1.63683,2.2 6.42351,8.725 10.63705,14.5 4.21355,5.775 9.13982,12.525 10.94727,15 1.80744,2.475 4.41114,6.179 5.78598,8.2311 1.37485,2.05211 3.51194,3.94788 4.74911,4.21282 1.23716,0.26495 14.39938,1.19017 29.24938,2.05605 14.85,0.86587 37.35,2.20831 50,2.98319 12.65,0.77489 32.23643,1.93915 43.52541,2.58726 l 20.52541,1.17838 33.47459,-13.77399 c 18.41102,-7.57569 35.56276,-14.12175 38.11497,-14.54681 2.55222,-0.42505 16.05222,-1.49084 30,-2.36841 13.94779,-0.87758 35.70962,-2.2455 48.35962,-3.03982 12.65,-0.79431 29.17197,-1.74611 36.71548,-2.11511 10.76813,-0.52672 14.02475,-1.01835 15.15468,-2.28777 0.79156,-0.88929 2.81214,-7.24189 4.49018,-14.11689 1.67803,-6.875 8.21193,-33.425 14.51976,-59 6.30784,-25.575 12.8843,-52.35 14.61436,-59.5 1.73006,-7.15 3.51575,-13.37919 3.96819,-13.84264 0.45245,-0.46345 1.79577,-0.32183 2.98516,0.31471 1.18939,0.63654 26.22686,19.12823 55.63884,41.09264 29.41197,21.96441 54.02465,39.9314 54.69483,39.92665 0.67019,-0.005 12.95161,-10.01725 27.29206,-22.25 14.34045,-12.23275 27.54666,-23.37099 29.34714,-24.75164 3.762,-2.88479 2.97669,0.0937 20.56313,-77.98972 3.73894,-16.60084 4.85322,-20 6.55616,-20 0.9901,0 16.14473,-9.84425 109.96003,-71.42862 20.5556,-13.4936 31.6087,-21.33676 31.8129,-22.57416 0.2565,-1.55397 -31.8877,-66.42775 -48.30873,-97.49722 -2.32551,-4.4 -10.37841,-20.22884 -17.89533,-35.17521 -7.51692,-14.94636 -14.47706,-28.17543 -15.46698,-29.39792 l -1.79985,-2.22273 -56.921,32.12091 -56.92101,32.12091 -0.30725,-2.89111 c -0.26733,-2.51543 2.31501,-22.8656 7.30343,-57.55485 0.79091,-5.5 1.91819,-13.6 2.50506,-18 0.58687,-4.4 2.61348,-19.13508 4.50358,-32.74462 2.86645,-20.6397 3.37425,-27.24709 2.13819,-27.82188 -0.0787,-0.0366 -30.12349,-3.10606 -66.76631,-6.82108 l -66.6233,-6.75458 -35.81078,-19.20705 -35.81078,-19.20705 -12.06592,2.03601 c -13.24392,2.23478 -47.73098,8.32348 -59.56592,10.51639 -24.47647,4.53526 -37.27825,6.60196 -39.15979,6.32189 -1.83912,-0.27376 -2.65235,-2.21091 -5.84155,-13.91491 -2.03774,-7.47828 -4.00463,-14.79078 -4.37087,-16.25 l -0.66589,-2.65312 57.51905,0 c 37.67937,0 57.51905,0.34492 57.51905,1 0,0.55 0.87344,1 1.94098,1 1.06754,0 2.21627,0.44542 2.55273,0.98983 0.35688,0.57744 1.50159,0.16082 2.74758,-1 2.11867,-1.97384 3.89005,-1.98983 220.44727,-1.98983 l 218.31144,0 0,339.5 0,339.5 -544.5,0 -544.5,0 0,-105.91152 z M 369.19869,589.99195 c 4.6665,-3.64636 9.1667,-7.30475 10.0005,-8.12975 0.8338,-0.825 4.4406,-3.75 8.0151,-6.5 10.1832,-7.8343 10.2306,-7.89944 8.5549,-11.73905 -0.7828,-1.79352 -3.0783,-7.53595 -5.1011,-12.76095 -2.0228,-5.225 -4.0648,-10.4 -4.5379,-11.5 -2.1091,-4.90409 -11.7425,-31.19926 -12.0898,-33 -0.5522,-2.86284 -4.2738,17.1133 -4.1919,22.5 0.038,2.475 -0.2111,3.70375 -0.5528,2.73056 -0.83,-2.364 -6.2628,29.07247 -5.5768,32.26944 0.4227,1.96982 0.3572,2.09173 -0.3086,0.57485 -1.0773,-2.45435 -3.4839,11.12286 -2.6939,15.19817 0.3805,1.96302 0.2988,2.20324 -0.2917,0.85748 -0.5823,-1.32678 -1.3455,1.13048 -2.6291,8.46455 -0.9948,5.68372 -2.0445,10.9484 -2.3326,11.69927 -0.2882,0.75088 0.7755,0.15022 2.3637,-1.33479 1.5882,-1.48502 6.7056,-5.68342 11.372,-9.32978 z m -1031.78734,15.23611 c -0.92137,-0.98632 -1.19706,-48.6187 -1.19706,-206.82365 l 0,-205.54221 254.66667,0 c 140.06666,0 254.46819,0.19848 254.2256,0.44106 -1.5239,1.5239 -84.65521,44.72659 -109.87579,57.10158 -16.76594,8.22655 -42.6387,21.03236 -57.49503,28.45736 l -27.0115,13.5 -13.69113,29 c -10.82834,22.93614 -14.12204,29.06673 -15.75194,29.31915 -1.19795,0.18553 -25.32267,-11.46948 -57.61813,-27.83615 -30.55653,-15.48542 -56.1216,-27.93878 -56.81128,-27.67413 -0.68967,0.26466 -3.62916,8.06593 -6.53219,17.33616 -2.90304,9.27023 -6.55041,20.90497 -8.10528,25.85497 -11.3746,36.21163 -13.25262,42.58072 -12.71424,43.11909 0.56024,0.56025 8.03835,-0.32056 35.64171,-4.19806 10.48249,-1.47249 12.56749,-1.11259 11.51854,1.98829 -0.20293,0.59987 -2.66839,17.06568 -5.47881,36.59068 -13.46025,93.5133 -12.5784,88 -14.07561,88 -0.49037,0 -0.89159,-0.197 -0.89159,-0.43777 0,-0.24078 -4.05896,-17.22828 -9.01992,-37.75 -4.96095,-20.52173 -11.28698,-46.73619 -14.05783,-58.25435 -2.77085,-11.51817 -5.36672,-21.52969 -5.76861,-22.24782 -0.53065,-0.94822 -5.78515,2.0211 -19.19217,10.84549 -10.15381,6.68315 -26.18115,17.21779 -35.61631,23.41032 -10.09014,6.6224 -17.42274,12.10321 -17.80537,13.30878 -0.3578,1.1273 0.70301,11.40418 2.35735,22.8375 1.65434,11.43332 5.96673,41.93785 9.58309,67.78785 3.61636,25.85 7.40873,52.7829 8.42749,59.85088 1.72084,11.93896 1.78449,16.63753 0.22565,16.65705 -0.34835,0.004 -9.40837,0.65801 -20.13337,1.45254 -10.725,0.79453 -29.175,2.14328 -41,2.99721 -11.825,0.85394 -22.42382,1.69594 -23.55294,1.87113 -1.12912,0.17518 -2.59162,-0.25815 -3.25,-0.96295 z"
         id="path4169"
         inkscape:connector-curvature="0" />
      <path
         style="fill:#7e9b81"
         d="m -663.78571,765.95068 c 0,-88.12123 0.2258,-105.87837 1.34426,-105.71422 0.73934,0.10852 12.23407,10.29935 25.54384,22.6463 13.30977,12.34696 24.86554,22.82169 25.67947,23.27719 1.50172,0.84041 3.34184,0.26121 20.93243,-6.58877 4.95,-1.92759 21.375,-8.3128 36.5,-14.18936 15.125,-5.87657 30.2,-11.74161 33.5,-13.03344 38.70193,-15.1504 39.5225,-15.43316 41.76797,-14.39272 1.22762,0.56881 3.27196,2.46798 4.54298,4.22037 1.27102,1.75239 5.14625,7.12469 8.61162,11.93843 3.46537,4.81374 7.0459,9.76374 7.95673,11 0.91082,1.23626 17.658,24.29774 37.21594,51.24774 19.55795,26.95 36.89913,50.8 38.53597,53 1.63683,2.2 6.42351,8.725 10.63705,14.5 4.21355,5.775 9.13982,12.525 10.94727,15 1.80744,2.475 4.41114,6.179 5.78598,8.2311 1.37485,2.05211 3.51194,3.94788 4.74911,4.21282 1.23716,0.26495 14.39938,1.19017 29.24938,2.05605 14.85,0.86587 37.35,2.20831 50,2.98319 12.65,0.77489 32.23643,1.93915 43.52541,2.58726 l 20.52541,1.17838 33.47459,-13.77491 c 18.41102,-7.57621 35.72459,-14.11915 38.47459,-14.53987 2.75,-0.42072 11.3,-1.03732 19,-1.37022 7.7,-0.33289 15.125,-0.78602 16.5,-1.00696 1.375,-0.22093 8.35,-0.66743 15.5,-0.99222 15.46863,-0.70265 30.17983,-1.56662 52,-3.05389 23.17978,-1.57993 25.17784,-1.60352 26.13989,-0.30859 1.22412,1.64768 1.82205,8.20139 0.68409,7.49809 -0.46774,-0.28908 -0.77306,1.11954 -0.67849,3.13027 0.0946,2.01073 -0.11831,4.10893 -0.47309,4.66268 -0.66377,1.03606 -0.76315,1.94243 -1.02145,9.31584 -0.083,2.36996 -0.49923,4.09377 -0.92491,3.83068 -0.94553,-0.58437 -0.61619,6.92 0.37401,8.52219 0.43763,0.70809 0.26711,0.87404 -0.44554,0.4336 -1.10986,-0.68593 -1.57338,0.50367 -1.22916,3.15451 0.0893,0.6875 -0.20679,1.25 -0.65794,1.25 -0.45114,0 -0.64295,1.85926 -0.42624,4.13169 0.21671,2.27244 -0.007,3.88375 -0.49753,3.58069 -1.02895,-0.63592 -0.80537,6.73151 0.25641,8.44951 0.43763,0.70809 0.26711,0.87404 -0.44554,0.4336 -1.16354,-0.71911 -1.53679,0.41437 -1.20565,3.66133 0.0985,0.96625 -0.52205,2.0259 -1.3791,2.35479 -0.85705,0.32888 -1.3093,1.00081 -1.005,1.49317 0.32524,0.52626 -133.41978,0.89522 -324.50574,0.89522 l -325.05902,0 0,-105.91152 z M 133.23625,870.1122 c 0.0121,-0.9625 0.88553,-3.65235 1.94101,-5.97744 1.05548,-2.32509 1.55941,-4.44971 1.11986,-4.72137 -0.43955,-0.27166 -29.10051,-11.69488 -63.69101,-25.38493 C 38.01561,820.3384 7.01429,808.06055 3.71429,806.74434 c -3.3,-1.31621 -5.9346,-2.83873 -5.85466,-3.38337 0.13747,-0.93667 10.07462,-5.28294 66.85466,-29.24063 13.2,-5.56959 36.35889,-15.35352 51.4642,-21.74207 15.10531,-6.38856 28.27925,-11.70567 29.27541,-11.81581 1.424,-0.15745 7.52452,10.32311 28.5358,49.02386 14.69852,27.07326 27.17459,49.08681 27.72459,48.919 1.41024,-0.43029 2.19971,-31.74664 2.36217,-93.70199 0.10801,-41.18581 0.4172,-52.94094 1.42891,-54.32453 0.91967,-1.25772 4.06538,-2.17848 10.93504,-3.20072 5.30418,-0.78928 29.81069,-4.35465 54.45892,-7.92305 84.60716,-12.24883 92.60536,-13.44993 93.14286,-13.98743 0.2963,-0.29631 0.1188,-0.92827 -0.3946,-1.40438 -0.5133,-0.47611 -20.9583,-11.32419 -45.4333,-24.10685 -75.36788,-39.36271 -82.46785,-43.1212 -83.5,-44.20221 -0.69466,-0.72753 0.80316,-0.84743 4.90534,-0.39265 3.24794,0.36007 17.64794,2.00122 32,3.64699 34.31872,3.93538 50.4098,5.77732 65.59466,7.50857 6.875,0.78383 13.8235,1.42965 15.4411,1.43514 2.6385,0.009 2.7605,-0.12212 1.1855,-1.2738 -1.6562,-1.21102 -1.4971,-2.67074 2.807,-25.75 2.5094,-13.45642 4.8125,-25.81621 5.1178,-27.46621 0.3053,-1.65 1.454,-7.725 2.5525,-13.5 2.3135,-12.162 4.3263,-23.00142 6.499,-35 l 1.5392,-8.5 -12.0568,-24 c -6.6312,-13.2 -19.0689,-37.725 -27.63928,-54.5 -8.57038,-16.775 -21.19517,-41.61033 -28.05509,-55.18963 -6.85991,-13.5793 -13.27725,-25.68336 -14.26075,-26.89793 l -1.78817,-2.2083 -56.921,32.12091 -56.92101,32.12091 -0.30725,-2.89111 c -0.26733,-2.51543 2.31501,-22.8656 7.30343,-57.55485 0.79091,-5.5 1.91819,-13.6 2.50506,-18 0.58687,-4.4 2.61348,-19.13508 4.50358,-32.74462 2.86645,-20.6397 3.37425,-27.24709 2.13819,-27.82188 -0.0787,-0.0366 -30.12349,-3.10606 -66.76631,-6.82108 l -66.6233,-6.75458 -35.81078,-19.20705 -35.81078,-19.20705 -12.06592,2.03601 c -13.24392,2.23478 -47.73098,8.32348 -59.56592,10.51639 -24.47647,4.53526 -37.27825,6.60196 -39.15979,6.32189 -1.83912,-0.27376 -2.65235,-2.21091 -5.84155,-13.91491 -2.03774,-7.47828 -4.00463,-14.79078 -4.37087,-16.25 l -0.66589,-2.65312 57.51905,0 c 37.67937,0 57.51905,0.34492 57.51905,1 0,0.55 0.87344,1 1.94098,1 1.06754,0 2.21627,0.44542 2.55273,0.98983 0.35688,0.57744 1.50159,0.16082 2.74758,-1 2.11867,-1.97384 3.89005,-1.98983 220.44727,-1.98983 l 218.31144,0 0,339.5 0,339.5 -146,0 c -138.38932,0 -145.99886,-0.0912 -145.97804,-1.75 z M 369.19869,589.99195 c 4.6665,-3.64636 9.1667,-7.30475 10.0005,-8.12975 0.8338,-0.825 4.4406,-3.75 8.0151,-6.5 10.1832,-7.8343 10.2306,-7.89944 8.5549,-11.73905 -0.7828,-1.79352 -3.0783,-7.53595 -5.1011,-12.76095 -2.0228,-5.225 -4.0648,-10.4 -4.5379,-11.5 -2.1091,-4.90409 -11.7425,-31.19926 -12.0898,-33 -0.5522,-2.86284 -4.2738,17.1133 -4.1919,22.5 0.038,2.475 -0.2111,3.70375 -0.5528,2.73056 -0.83,-2.364 -6.2628,29.07247 -5.5768,32.26944 0.4227,1.96982 0.3572,2.09173 -0.3086,0.57485 -1.0773,-2.45435 -3.4839,11.12286 -2.6939,15.19817 0.3805,1.96302 0.2988,2.20324 -0.2917,0.85748 -0.5823,-1.32678 -1.3455,1.13048 -2.6291,8.46455 -0.9948,5.68372 -2.0445,10.9484 -2.3326,11.69927 -0.2882,0.75088 0.7755,0.15022 2.3637,-1.33479 1.5882,-1.48502 6.7056,-5.68342 11.372,-9.32978 z m -1031.78734,15.23611 c -0.92137,-0.98632 -1.19706,-48.6187 -1.19706,-206.82365 l 0,-205.54221 254.66667,0 c 140.06666,0 254.46819,0.19848 254.2256,0.44106 -1.5239,1.5239 -84.65521,44.72659 -109.87579,57.10158 -16.76594,8.22655 -42.6387,21.03236 -57.49503,28.45736 l -27.0115,13.5 -13.69113,29 c -10.82834,22.93614 -14.12204,29.06673 -15.75194,29.31915 -1.19795,0.18553 -25.32267,-11.46948 -57.61813,-27.83615 -30.55653,-15.48542 -56.1216,-27.93878 -56.81128,-27.67413 -0.68967,0.26466 -3.62916,8.06593 -6.53219,17.33616 -2.90304,9.27023 -6.55041,20.90497 -8.10528,25.85497 -11.3746,36.21163 -13.25262,42.58072 -12.71424,43.11909 0.56024,0.56025 8.03835,-0.32056 35.64171,-4.19806 10.48249,-1.47249 12.56749,-1.11259 11.51854,1.98829 -0.20293,0.59987 -2.66839,17.06568 -5.47881,36.59068 -13.46025,93.5133 -12.5784,88 -14.07561,88 -0.49037,0 -0.89159,-0.197 -0.89159,-0.43777 0,-0.24078 -4.05896,-17.22828 -9.01992,-37.75 -4.96095,-20.52173 -11.28698,-46.73619 -14.05783,-58.25435 -2.77085,-11.51817 -5.36672,-21.52969 -5.76861,-22.24782 -0.53065,-0.94822 -5.78515,2.0211 -19.19217,10.84549 -10.15381,6.68315 -26.18115,17.21779 -35.61631,23.41032 -10.09014,6.6224 -17.42274,12.10321 -17.80537,13.30878 -0.3578,1.1273 0.70301,11.40418 2.35735,22.8375 1.65434,11.43332 5.96673,41.93785 9.58309,67.78785 3.61636,25.85 7.40873,52.7829 8.42749,59.85088 1.72084,11.93896 1.78449,16.63753 0.22565,16.65705 -0.34835,0.004 -9.40837,0.65801 -20.13337,1.45254 -10.725,0.79453 -29.175,2.14328 -41,2.99721 -11.825,0.85394 -22.42382,1.69594 -23.55294,1.87113 -1.12912,0.17518 -2.59162,-0.25815 -3.25,-0.96295 z"
         id="path4167"
         inkscape:connector-curvature="0" />
      <path
         style="fill:#927394"
         d="m -663.78571,765.95068 c 0,-88.12123 0.2258,-105.87837 1.34426,-105.71422 0.73934,0.10852 12.23153,10.3062 25.53818,22.66152 13.30666,12.35532 25.01826,22.84439 26.02579,23.30905 1.34,0.61798 17.5075,-5.25096 60.21182,-21.8574 71.28331,-27.71996 68.57076,-26.70478 70.30065,-26.31025 0.77852,0.17755 29.17209,38.57282 63.09683,85.32282 33.92473,46.75 62.70862,86.06181 63.9642,87.35957 2.70231,2.79311 0.32539,2.52628 46.01827,5.16606 31.66916,1.82959 66.73416,3.91992 92.63254,5.5221 l 9.63255,0.5959 22.36745,-9.18195 c 12.3021,-5.05007 27.73299,-11.37936 34.29086,-14.06508 6.55787,-2.68572 12.09214,-4.71439 12.29837,-4.50816 0.20624,0.20623 -2.34679,12.3475 -5.6734,26.98058 -3.3266,14.63309 -6.04837,27.52009 -6.04837,28.6378 0,1.98889 -0.46342,2.02644 -21.75,1.76268 l -21.75,-0.2695 -5.66823,-11.5 c -3.11752,-6.325 -5.86841,-11.95 -6.11309,-12.5 -0.24468,-0.55 -0.77677,-0.69221 -1.18242,-0.31602 -0.40565,0.37619 -0.0173,5.23171 0.86309,10.79005 0.88036,5.55834 1.60065,10.98805 1.60065,12.06602 0,1.94094 -2.24013,1.95995 -231,1.95995 l -231,0 0,-105.91152 z m 582,100.66924 c -2.475,-2.83373 -14.2875,-15.90442 -26.25,-29.04598 -11.9625,-13.14157 -21.75,-24.30281 -21.75,-24.80275 0,-0.49995 1.4625,-0.91156 3.25,-0.91471 1.7875,-0.003 21.25,-1.11488 43.25,-2.47053 22,-1.35565 48.24909,-2.96649 58.33132,-3.57963 10.08222,-0.61315 18.57697,-0.86916 18.87721,-0.56892 0.44359,0.44359 -6.2822,51.39403 -8.36588,63.3748 l -0.56523,3.25 -31.13871,-0.045 -31.13871,-0.045 -4.5,-5.15223 z m 215.02196,3.49228 c 0.0121,-0.9625 0.88553,-3.65235 1.94101,-5.97744 1.05548,-2.32509 1.55941,-4.44971 1.11986,-4.72137 -0.43955,-0.27166 -29.10051,-11.69488 -63.69101,-25.38493 C 38.01561,820.3384 7.01429,808.06055 3.71429,806.74434 c -3.3,-1.31621 -5.9346,-2.83873 -5.85466,-3.38337 0.13747,-0.93667 10.07462,-5.28294 66.85466,-29.24063 13.2,-5.56959 36.35889,-15.35352 51.4642,-21.74207 15.10531,-6.38856 28.27925,-11.70567 29.27541,-11.81581 1.424,-0.15745 7.52452,10.32311 28.5358,49.02386 14.69852,27.07326 27.17459,49.08681 27.72459,48.919 1.41024,-0.43029 2.19971,-31.74664 2.36217,-93.70199 0.10801,-41.18581 0.4172,-52.94094 1.42891,-54.32453 0.91967,-1.25772 4.06538,-2.17848 10.93504,-3.20072 5.30418,-0.78928 29.81069,-4.35465 54.45892,-7.92305 84.60716,-12.24883 92.60536,-13.44993 93.14286,-13.98743 0.2963,-0.29631 0.1188,-0.92827 -0.3946,-1.40438 -0.5133,-0.47611 -20.9583,-11.32419 -45.4333,-24.10685 -75.36788,-39.36271 -82.46785,-43.1212 -83.5,-44.20221 -0.69466,-0.72753 0.80316,-0.84743 4.90534,-0.39265 3.24794,0.36007 17.64794,2.00122 32,3.64699 34.31872,3.93538 50.4098,5.77732 65.59466,7.50857 6.875,0.78383 13.6971,1.42965 15.1602,1.43514 1.9592,0.007 8.2201,-4.48346 23.7581,-17.04136 11.6038,-9.37825 22.1044,-18.41285 23.3346,-20.0769 2.212,-2.9919 2.3148,-3.01875 9.242,-2.41467 3.8528,0.33598 9.1426,0.86281 11.7551,1.17073 l 4.75,0.55987 0,150.90616 0,150.90616 -146,0 c -138.38932,0 -145.99886,-0.0912 -145.97804,-1.75 z m -795.8249,-264.88414 c -0.92137,-0.98632 -1.19706,-48.6187 -1.19706,-206.82365 l 0,-205.54221 254.66667,0 c 140.06666,0 254.46819,0.19848 254.2256,0.44106 -1.5239,1.5239 -84.65521,44.72659 -109.87579,57.10158 -16.76594,8.22655 -42.6387,21.03236 -57.49503,28.45736 l -27.0115,13.5 -13.69113,29 c -10.82834,22.93614 -14.12204,29.06673 -15.75194,29.31915 -1.19795,0.18553 -25.32267,-11.46948 -57.61813,-27.83615 -30.55653,-15.48542 -56.1216,-27.93878 -56.81128,-27.67413 -0.68967,0.26466 -3.62916,8.06593 -6.53219,17.33616 -2.90304,9.27023 -6.55041,20.90497 -8.10528,25.85497 -11.3746,36.21163 -13.25262,42.58072 -12.71424,43.11909 0.56024,0.56025 8.03835,-0.32056 35.64171,-4.19806 10.48249,-1.47249 12.56749,-1.11259 11.51854,1.98829 -0.20293,0.59987 -2.66839,17.06568 -5.47881,36.59068 -13.46025,93.5133 -12.5784,88 -14.07561,88 -0.49037,0 -0.89159,-0.197 -0.89159,-0.43777 0,-0.24078 -4.05896,-17.22828 -9.01992,-37.75 -4.96095,-20.52173 -11.28698,-46.73619 -14.05783,-58.25435 -2.77085,-11.51817 -5.36672,-21.52969 -5.76861,-22.24782 -0.53065,-0.94822 -5.78515,2.0211 -19.19217,10.84549 -10.15381,6.68315 -26.18115,17.21779 -35.61631,23.41032 -10.09014,6.6224 -17.42274,12.10321 -17.80537,13.30878 -0.3578,1.1273 0.70301,11.40418 2.35735,22.8375 1.65434,11.43332 5.96673,41.93785 9.58309,67.78785 3.61636,25.85 7.40873,52.7829 8.42749,59.85088 1.72084,11.93896 1.78449,16.63753 0.22565,16.65705 -0.34835,0.004 -9.40837,0.65801 -20.13337,1.45254 -10.725,0.79453 -29.175,2.14328 -41,2.99721 -11.825,0.85394 -22.42382,1.69594 -23.55294,1.87113 -1.12912,0.17518 -2.59162,-0.25815 -3.25,-0.96295 z M 374.61419,496.69767 c -1.155,-1.28451 -9.3014,-16.51047 -18.103,-33.83547 -54.87686,-108.01854 -65.70943,-128.94432 -67.00808,-129.44266 -0.81931,-0.3144 -25.69392,13.12082 -57.29031,30.9435 -30.71327,17.32454 -56.36321,31.49916 -56.99986,31.49916 -0.72333,0 -0.96072,-1.03159 -0.63284,-2.75 0.8079,-4.23413 2.38812,-15.23109 4.63419,-32.25 1.12509,-8.525 2.47675,-18.425 3.00369,-22 0.52695,-3.575 2.55422,-18.2 4.50506,-32.5 1.95084,-14.3 4.13627,-30.17656 4.85651,-35.28125 1.00841,-7.1471 1.03856,-9.65182 0.13112,-10.89281 -0.97024,-1.32689 -12.93107,-2.79125 -67.71069,-8.28983 l -66.53229,-6.67827 -35.81078,-19.20705 -35.81078,-19.20705 -12.06592,2.03601 c -13.24392,2.23478 -47.73098,8.32348 -59.56592,10.51639 -24.47647,4.53526 -37.27825,6.60196 -39.15979,6.32189 -1.83912,-0.27376 -2.65235,-2.21091 -5.84155,-13.91491 -2.03774,-7.47828 -4.00463,-14.79078 -4.37087,-16.25 l -0.66589,-2.65312 57.51905,0 c 37.67937,0 57.51905,0.34492 57.51905,1 0,0.55 0.87344,1 1.94098,1 1.06754,0 2.21627,0.44542 2.55273,0.98983 0.35688,0.57744 1.50159,0.16082 2.74758,-1 2.11867,-1.97384 3.89005,-1.98983 220.44727,-1.98983 l 218.31144,0 0,151.47141 0,151.47141 -3.25,0.89587 c -1.7875,0.49273 -11.125,0.97076 -20.75,1.06227 -9.625,0.0915 -19.075,0.4147 -21,0.71819 -2.8207,0.44469 -3.9076,0.0985 -5.6001,-1.78368 z"
         id="path4165"
         inkscape:connector-curvature="0" />
      <path
         style="fill:#718e75"
         d="m -663.78571,793.90074 0,-77.96145 3.75,-1.00001 c 2.0625,-0.55 7.125,-1.49681 11.25,-2.10402 4.125,-0.60721 11.1,-1.74485 15.5,-2.5281 4.4,-0.78325 11.60413,-1.81671 16.00918,-2.29658 7.00966,-0.76361 15.30857,-3.71101 66.5,-23.61783 71.4071,-27.7681 68.68142,-26.74795 70.41152,-26.35337 0.77852,0.17755 29.17209,38.57282 63.09683,85.32282 33.92473,46.75 62.70862,86.06181 63.9642,87.35957 2.70231,2.79311 0.32539,2.52628 46.01827,5.16606 31.66916,1.82959 66.73416,3.91992 92.63254,5.5221 l 9.63255,0.5959 22.36745,-9.18195 c 12.3021,-5.05007 27.73299,-11.37936 34.29086,-14.06508 6.55787,-2.68572 12.09214,-4.71439 12.29837,-4.50816 0.20624,0.20623 -2.34679,12.3475 -5.6734,26.98058 -3.3266,14.63309 -6.04837,27.52009 -6.04837,28.6378 0,1.98889 -0.46342,2.02644 -21.75,1.76268 l -21.75,-0.2695 -5.66823,-11.5 c -3.11752,-6.325 -5.86841,-11.95 -6.11309,-12.5 -0.24468,-0.55 -0.77677,-0.69221 -1.18242,-0.31602 -0.40565,0.37619 -0.0173,5.23171 0.86309,10.79005 0.88036,5.55834 1.60065,10.98805 1.60065,12.06602 0,1.94094 -2.24013,1.95995 -231,1.95995 l -231,0 0,-77.96146 z m 582,72.71918 c -2.475,-2.83373 -14.2875,-15.90442 -26.25,-29.04598 -11.9625,-13.14157 -21.75,-24.30281 -21.75,-24.80275 0,-0.49995 1.4625,-0.91156 3.25,-0.91471 1.7875,-0.003 21.25,-1.11488 43.25,-2.47053 22,-1.35565 48.24909,-2.96649 58.33132,-3.57963 10.08222,-0.61315 18.57697,-0.86916 18.87721,-0.56892 0.44359,0.44359 -6.2822,51.39403 -8.36588,63.3748 l -0.56523,3.25 -31.13871,-0.045 -31.13871,-0.045 -4.5,-5.15223 z m 215.02196,3.49228 c 0.0121,-0.9625 0.88553,-3.65235 1.94101,-5.97744 1.05548,-2.32509 1.55941,-4.44971 1.11986,-4.72137 -0.43955,-0.27166 -29.10051,-11.69488 -63.69101,-25.38493 C 38.01561,820.3384 7.01429,808.06055 3.71429,806.74434 c -3.3,-1.31621 -5.9346,-2.83873 -5.85466,-3.38337 0.13747,-0.93667 10.07462,-5.28294 66.85466,-29.24063 13.2,-5.56959 36.35889,-15.35352 51.4642,-21.74207 15.10531,-6.38856 28.27925,-11.70567 29.27541,-11.81581 1.424,-0.15745 7.52452,10.32311 28.5358,49.02386 14.69852,27.07326 27.17459,49.08681 27.72459,48.919 1.41024,-0.43029 2.19971,-31.74664 2.36217,-93.70199 0.10801,-41.18581 0.4172,-52.94094 1.42891,-54.32453 0.91967,-1.25772 4.06538,-2.17848 10.93504,-3.20072 5.30418,-0.78928 29.81069,-4.35465 54.45892,-7.92305 84.60716,-12.24883 92.60536,-13.44993 93.14286,-13.98743 0.2963,-0.29631 0.1188,-0.92827 -0.3946,-1.40438 -0.5133,-0.47611 -20.9583,-11.32419 -45.4333,-24.10685 -75.36788,-39.36271 -82.46785,-43.1212 -83.5,-44.20221 -0.69466,-0.72753 0.80316,-0.84743 4.90534,-0.39265 3.24794,0.36007 17.64794,2.00122 32,3.64699 34.31872,3.93538 50.4098,5.77732 65.59466,7.50857 6.875,0.78383 13.6971,1.42965 15.1602,1.43514 1.9592,0.007 8.2201,-4.48346 23.7581,-17.04136 11.6038,-9.37825 22.1044,-18.41285 23.3346,-20.0769 2.212,-2.9919 2.3148,-3.01875 9.242,-2.41467 3.8528,0.33598 9.1426,0.86281 11.7551,1.17073 l 4.75,0.55987 0,150.90616 0,150.90616 -146,0 c -138.38932,0 -145.99886,-0.0912 -145.97804,-1.75 z M 374.61419,496.69767 c -1.155,-1.28451 -9.3014,-16.51047 -18.103,-33.83547 -54.87686,-108.01854 -65.70943,-128.94432 -67.00808,-129.44266 -0.81931,-0.3144 -25.69392,13.12082 -57.29031,30.9435 -30.71327,17.32454 -56.36321,31.49916 -56.99986,31.49916 -0.72333,0 -0.96072,-1.03159 -0.63284,-2.75 0.8079,-4.23413 2.38812,-15.23109 4.63419,-32.25 1.12509,-8.525 2.47675,-18.425 3.00369,-22 0.52695,-3.575 2.55422,-18.2 4.50506,-32.5 1.95084,-14.3 4.12386,-30.09171 4.82892,-35.09269 0.85978,-6.09835 0.96323,-9.88545 0.31415,-11.5 -1.28955,-3.20767 -7.34603,-15.96105 -19.664,-41.40731 -5.5911,-11.55 -10.56449,-22.0125 -11.05198,-23.25 l -0.88634,-2.25 132.47525,0 132.47525,0 0,151.47141 0,151.47141 -3.25,0.89587 c -1.7875,0.49273 -11.125,0.97076 -20.75,1.06227 -9.625,0.0915 -19.075,0.4147 -21,0.71819 -2.8207,0.44469 -3.9076,0.0985 -5.6001,-1.78368 z m -871.75608,-17.53432 c -2.52297,-10.34063 -6.86355,-28.25115 -9.64573,-39.80115 -2.78218,-11.55 -6.89761,-28.55981 -9.14539,-37.79958 -2.24778,-9.23977 -3.88949,-16.99696 -3.64824,-17.23821 0.24125,-0.24125 5.58144,-1.14757 11.86709,-2.01404 6.28565,-0.86646 16.10801,-2.2297 21.82747,-3.02942 5.71947,-0.79972 10.57178,-1.28129 10.78291,-1.07015 0.21114,0.21113 -1.40015,12.70657 -3.58063,27.76764 -10.59072,73.15234 -13.2925,91.4073 -13.56964,91.68491 -0.16534,0.16563 -2.36487,-8.15937 -4.88784,-18.5 z m -166.64382,-155.80115 0,-130.5 151.39301,0 c 128.93449,0 151.47281,0.20795 151.93093,1.40178 0.63117,1.64481 1.89665,10.8412 4.62333,33.59822 1.08734,9.075 3.11902,25.58308 4.51485,36.68463 1.39584,11.10155 2.53788,21.32051 2.53788,22.70879 0,2.71859 -27.50805,61.65971 -29.30129,62.78347 -0.92183,0.57768 -61.0476,-29.24928 -100.3972,-49.80466 -6.70916,-3.50473 -13.3105,-6.37223 -14.66963,-6.37223 -2.67101,0 -2.2588,-0.90953 -8.15782,18 -15.46005,49.55778 -19.63641,62.50782 -20.42014,63.31868 -0.43521,0.45028 -1.31628,-5.17472 -1.95794,-12.5 -2.15647,-24.61866 -4.06079,-47.22433 -5.1234,-60.81868 -1.23704,-15.82579 -1.9615,-21 -2.94032,-21 -0.39166,0 -14.33824,32.7375 -30.99239,72.75 -16.65415,40.0125 -31.26214,74.05562 -32.46219,75.65139 -1.90235,2.52965 -6.27513,4.28604 -34.12979,13.70874 -17.57134,5.94404 -32.51039,10.82592 -33.19789,10.84861 -0.99383,0.0328 -1.25,-26.7034 -1.25,-130.45874 z m 401.79466,-90.68684 c -7.31206,-4.44938 -24.09466,-14.63339 -37.29466,-22.63114 -13.2,-7.99774 -24.59464,-15.1355 -25.32143,-15.86168 -1.09471,-1.09381 4.94548,-1.32034 35.20469,-1.32034 l 36.52611,0 0.54713,3.25 c 1.33322,7.9194 6.5435,41.9005 6.5435,42.67624 0,2.75101 -4.31024,1.12508 -16.20534,-6.11308 z"
         id="path4163"
         inkscape:connector-curvature="0" />
      <path
         style="fill:#875194"
         d="m -663.78571,793.90074 0,-77.96145 3.75,-1.00001 c 2.0625,-0.55 7.125,-1.50688 11.25,-2.12638 4.125,-0.61951 12.60722,-1.98685 18.84937,-3.03854 6.24216,-1.05169 12.85927,-1.91216 14.7047,-1.91216 3.69933,0 -0.65624,-4.81095 81.46969,89.98753 17.86193,20.61814 34.32469,39.48229 36.5839,41.92032 l 4.10766,4.43279 17.39234,-1.6941 c 16.40121,-1.59755 38.33782,-3.72161 73.89234,-7.1548 8.525,-0.82318 22.33831,-2.18951 30.69624,-3.03627 12.49168,-1.26557 15.5752,-1.30962 17.32559,-0.24752 1.71409,1.04007 17.44015,30.57526 20.25555,38.04205 0.62677,1.66227 -7.6349,1.75 -164.80876,1.75 l -165.46862,0 0,-77.96146 z m 800.45379,71.55513 3.04621,-6.40633 10.5,-2.72455 c 40.99593,-10.63766 51.46082,-13.58626 52.16693,-14.69864 0.97885,-1.54205 0.95815,-0.53531 1.71755,-83.55149 0.49728,-54.36194 0.8707,-67.44489 1.94396,-68.10749 0.73064,-0.45109 6.58064,-1.5382 13,-2.41582 6.41936,-0.87761 31.92156,-4.55448 56.67156,-8.17082 24.75,-3.61634 52.875,-7.70083 62.5,-9.07663 9.625,-1.37581 20.2623,-2.97551 23.6384,-3.5549 6.6006,-1.13275 4.895,-1.58846 57.1116,15.25947 l 6.25,2.01659 0,93.91847 0,93.91847 -145.79621,0 -145.79621,0 3.04621,-6.40633 z m -38.45379,-23.7368 c -20.625,-8.22218 -50.96034,-20.27378 -67.41187,-26.78133 -24.49973,-9.6911 -29.56594,-12.01538 -28,-12.84586 1.05153,-0.55767 14.96187,-6.52072 30.91187,-13.25122 58.50477,-24.68753 69.42054,-29.28859 90.37028,-38.09156 11.75365,-4.93883 21.48601,-8.84631 21.62746,-8.68329 0.14145,0.16301 -0.1253,5.47139 -0.59279,11.79639 -0.46749,6.325 -1.51938,20.95 -2.33754,32.5 -0.81816,11.55 -2.2833,32.1375 -3.25588,45.75 -1.08686,15.21201 -2.16202,24.71267 -2.78993,24.65314 -0.56188,-0.0533 -17.8966,-6.8241 -38.5216,-15.04627 z M -497.14189,479.16335 c -2.52297,-10.34063 -6.86355,-28.25115 -9.64573,-39.80115 -2.78218,-11.55 -6.89761,-28.55981 -9.14539,-37.79958 -2.24778,-9.23977 -3.88949,-16.99696 -3.64824,-17.23821 0.24125,-0.24125 5.58144,-1.14757 11.86709,-2.01404 6.28565,-0.86646 16.10801,-2.2297 21.82747,-3.02942 5.71947,-0.79972 10.57178,-1.28129 10.78291,-1.07015 0.21114,0.21113 -1.40015,12.70657 -3.58063,27.76764 -10.59072,73.15234 -13.2925,91.4073 -13.56964,91.68491 -0.16534,0.16563 -2.36487,-8.15937 -4.88784,-18.5 z m 918.07388,15.97948 c -2.5166,-0.37963 -2.7303,-0.72339 -2.2384,-3.60017 1.0593,-6.1959 3.6257,-35.41421 4.5767,-52.10732 0.5304,-9.30978 1.1848,-17.14728 1.4542,-17.41667 0.2694,-0.26939 0.4898,16.2352 0.4898,36.67686 0,20.44167 -0.3375,37.09925 -0.75,37.01684 -0.4125,-0.0824 -2.002,-0.3387 -3.5323,-0.56954 z m -60.6099,-27.53237 c -7.3657,-14.43654 -19.1204,-37.49826 -26.12161,-51.24826 -35.91085,-70.52728 -42.24492,-82.5681 -43.90126,-83.45455 -2.07339,-1.10964 -2.32738,-3.0265 -4.57754,-34.54545 -0.82456,-11.55 -1.92921,-26.175 -2.45478,-32.5 -0.52557,-6.325 -1.25095,-16.1125 -1.61196,-21.75 -0.42501,-6.63688 -1.05899,-10.24892 -1.79852,-10.24694 -1.33791,0.004 -10.37875,2.78755 -62.64213,19.28957 -11.275,3.56004 -20.95,6.57888 -21.5,6.70851 -2.66568,0.6283 -3.7986,-0.47399 -6.42477,-6.25114 -1.56262,-3.4375 -8.33455,-17.5 -15.04873,-31.25 -6.71419,-13.75 -12.60572,-26.0125 -13.0923,-27.25 l -0.8847,-2.25 132.47525,0 132.47525,0 0,102.92857 c 0,83.67309 -0.2458,103.17578 -1.3138,104.25 -0.7227,0.72679 -11.8093,21.45721 -24.637,46.0676 -12.8277,24.61039 -23.824,45.42211 -24.4362,46.24826 -0.8936,1.20601 -3.7527,-3.67168 -14.5052,-24.74617 z m -1024.1078,-144.24826 0,-130.5 151.39301,0 c 128.93449,0 151.47281,0.20795 151.93093,1.40178 0.63117,1.64481 1.89665,10.8412 4.62333,33.59822 1.08734,9.075 3.11902,25.58308 4.51485,36.68463 1.39584,11.10155 2.53788,21.32051 2.53788,22.70879 0,2.71859 -27.50805,61.65971 -29.30129,62.78347 -0.92183,0.57768 -61.0476,-29.24928 -100.3972,-49.80466 -6.70916,-3.50473 -13.3105,-6.37223 -14.66963,-6.37223 -2.67101,0 -2.2588,-0.90953 -8.15782,18 -15.46005,49.55778 -19.63641,62.50782 -20.42014,63.31868 -0.43521,0.45028 -1.31628,-5.17472 -1.95794,-12.5 -2.15647,-24.61866 -4.06079,-47.22433 -5.1234,-60.81868 -1.23704,-15.82579 -1.9615,-21 -2.94032,-21 -0.39166,0 -14.33824,32.7375 -30.99239,72.75 -16.65415,40.0125 -31.26214,74.05562 -32.46219,75.65139 -1.90235,2.52965 -6.27513,4.28604 -34.12979,13.70874 -17.57134,5.94404 -32.51039,10.82592 -33.19789,10.84861 -0.99383,0.0328 -1.25,-26.7034 -1.25,-130.45874 z m 401.79466,-90.68684 c -7.31206,-4.44938 -24.09466,-14.63339 -37.29466,-22.63114 -13.2,-7.99774 -24.59464,-15.1355 -25.32143,-15.86168 -1.09471,-1.09381 4.94548,-1.32034 35.20469,-1.32034 l 36.52611,0 0.54713,3.25 c 1.33322,7.9194 6.5435,41.9005 6.5435,42.67624 0,2.75101 -4.31024,1.12508 -16.20534,-6.11308 z"
         id="path4161"
         inkscape:connector-curvature="0" />
      <path
         style="fill:#7c4d87"
         d="m -663.78571,793.90074 0,-77.96145 3.75,-1.00001 c 2.0625,-0.55 7.125,-1.50688 11.25,-2.12638 4.125,-0.61951 12.60722,-1.98685 18.84937,-3.03854 6.24216,-1.05169 12.85927,-1.91216 14.7047,-1.91216 3.69933,0 -0.65624,-4.81095 81.46969,89.98753 17.86193,20.61814 34.32469,39.48229 36.5839,41.92032 l 4.10766,4.43279 17.39234,-1.6941 c 16.40121,-1.59755 38.33782,-3.72161 73.89234,-7.1548 8.525,-0.82318 22.33831,-2.18951 30.69624,-3.03627 12.49168,-1.26557 15.5752,-1.30962 17.32559,-0.24752 1.71409,1.04007 17.44015,30.57526 20.25555,38.04205 0.62677,1.66227 -7.6349,1.75 -164.80876,1.75 l -165.46862,0 0,-77.96146 z m 800.45379,71.55513 3.04621,-6.40633 10.5,-2.72455 c 40.99593,-10.63766 51.46082,-13.58626 52.16693,-14.69864 0.97885,-1.54205 0.95815,-0.53531 1.71755,-83.55149 0.49728,-54.36194 0.8707,-67.44489 1.94396,-68.10749 0.73064,-0.45109 6.58064,-1.5382 13,-2.41582 6.41936,-0.87761 31.92156,-4.55448 56.67156,-8.17082 24.75,-3.61634 52.875,-7.70083 62.5,-9.07663 9.625,-1.37581 20.2623,-2.97551 23.6384,-3.5549 6.6006,-1.13275 4.895,-1.58846 57.1116,15.25947 l 6.25,2.01659 0,93.91847 0,93.91847 -145.79621,0 -145.79621,0 3.04621,-6.40633 z m -38.45379,-23.7368 c -20.625,-8.22218 -50.96034,-20.27378 -67.41187,-26.78133 -24.49973,-9.6911 -29.56594,-12.01538 -28,-12.84586 1.05153,-0.55767 14.96187,-6.52072 30.91187,-13.25122 58.50477,-24.68753 69.42054,-29.28859 90.37028,-38.09156 11.75365,-4.93883 21.48601,-8.84631 21.62746,-8.68329 0.14145,0.16301 -0.1253,5.47139 -0.59279,11.79639 -0.46749,6.325 -1.51938,20.95 -2.33754,32.5 -0.81816,11.55 -2.2833,32.1375 -3.25588,45.75 -1.08686,15.21201 -2.16202,24.71267 -2.78993,24.65314 -0.56188,-0.0533 -17.8966,-6.8241 -38.5216,-15.04627 z m 322.7177,-346.57624 c -2.5166,-0.37963 -2.7303,-0.72339 -2.2384,-3.60017 1.0593,-6.1959 3.6257,-35.41421 4.5767,-52.10732 0.5304,-9.30978 1.1848,-17.14728 1.4542,-17.41667 0.2694,-0.26939 0.4898,16.2352 0.4898,36.67686 0,20.44167 -0.3375,37.09925 -0.75,37.01684 -0.4125,-0.0824 -2.002,-0.3387 -3.5323,-0.56954 z m -60.6099,-27.53237 c -7.3657,-14.43654 -19.1204,-37.49826 -26.12161,-51.24826 -35.91085,-70.52728 -42.24492,-82.5681 -43.90126,-83.45455 -2.07339,-1.10964 -2.32738,-3.0265 -4.57754,-34.54545 -0.82456,-11.55 -1.92921,-26.175 -2.45478,-32.5 -0.52557,-6.325 -1.25095,-16.1125 -1.61196,-21.75 -0.42501,-6.63688 -1.05899,-10.24892 -1.79852,-10.24694 -1.33791,0.004 -10.37875,2.78755 -62.64213,19.28957 -11.275,3.56004 -20.95,6.57888 -21.5,6.70851 -2.66568,0.6283 -3.7986,-0.47399 -6.42477,-6.25114 -1.56262,-3.4375 -8.33455,-17.5 -15.04873,-31.25 -6.71419,-13.75 -12.60572,-26.0125 -13.0923,-27.25 l -0.8847,-2.25 132.47525,0 132.47525,0 0,102.92857 c 0,83.67309 -0.2458,103.17578 -1.3138,104.25 -0.7227,0.72679 -11.8093,21.45721 -24.637,46.0676 -12.8277,24.61039 -23.824,45.42211 -24.4362,46.24826 -0.8936,1.20601 -3.7527,-3.67168 -14.5052,-24.74617 z M -663.78571,429.3622 c 0,-13.475 0.30518,-24.5 0.67817,-24.5 0.37299,0 15.00631,5.73746 32.51847,12.74991 25.26636,10.11748 31.52764,12.97854 30.3259,13.85727 -0.83292,0.60905 -14.67874,5.50989 -30.76848,10.89077 -16.08973,5.38087 -29.68156,10.1701 -30.20406,10.64273 -0.5225,0.47263 -1.31,0.85932 -1.75,0.85932 -0.44,0 -0.8,-11.025 -0.8,-24.5 z m 0,-145.03138 0,-91.46862 137.55902,0 c 82.88728,0 137.33436,0.3635 136.99377,0.91459 -0.31089,0.50302 -0.18673,1.06552 0.27592,1.25 0.46264,0.18448 -17.77261,18.11041 -40.52277,39.83541 -52.7324,50.35618 -61.00116,58 -62.74192,58 -0.78164,0 -2.11789,-0.69673 -2.96945,-1.54829 -1.33523,-1.33523 -24.9488,-13.03538 -31.30508,-15.51118 -1.77583,-0.69169 -3.15231,-0.11814 -7,2.91677 -14.05325,11.08467 -127.05359,95.8382 -128.53961,96.40844 -1.65865,0.63648 -1.74988,-4.09737 -1.74988,-90.79712 z m 411,-48.63894 c -28.68071,-17.7234 -67.45392,-40.82968 -68.51374,-40.82968 -0.75252,0 -1.64992,-0.45579 -1.99421,-1.01287 -0.41927,-0.67839 11.03666,-0.92606 34.69098,-0.75 33.87573,0.25214 35.30385,0.33922 34.99537,2.13376 -0.30438,1.77074 2.82596,23.56345 4.87352,33.92833 1.14207,5.78123 1.2086,8.70208 0.19808,8.69704 -0.4125,-0.002 -2.325,-0.97702 -4.25,-2.16658 z"
         id="path4159"
         inkscape:connector-curvature="0" />
      <path
         style="fill:#686c6c"
         d="m -663.78571,793.90074 0,-77.96145 3.75,-1.00001 c 2.0625,-0.55 7.125,-1.50688 11.25,-2.12638 4.125,-0.61951 12.60722,-1.98685 18.84937,-3.03854 6.24216,-1.05169 12.85927,-1.91216 14.7047,-1.91216 3.69933,0 -0.65624,-4.81095 81.46969,89.98753 17.86193,20.61814 34.32469,39.48229 36.5839,41.92032 l 4.10766,4.43279 17.39234,-1.6941 c 16.40121,-1.59755 38.33782,-3.72161 73.89234,-7.1548 8.525,-0.82318 22.33831,-2.18951 30.69624,-3.03627 12.49168,-1.26557 15.5752,-1.30962 17.32559,-0.24752 1.71409,1.04007 17.44015,30.57526 20.25555,38.04205 0.62677,1.66227 -7.6349,1.75 -164.80876,1.75 l -165.46862,0 0,-77.96146 z m 800.45379,71.55513 3.04621,-6.40633 10.5,-2.72455 c 40.99593,-10.63766 51.46082,-13.58626 52.16693,-14.69864 0.97885,-1.54205 0.95815,-0.53531 1.71755,-83.55149 0.49728,-54.36194 0.8707,-67.44489 1.94396,-68.10749 0.73064,-0.45109 6.58064,-1.5382 13,-2.41582 6.41936,-0.87761 31.92156,-4.55448 56.67156,-8.17082 24.75,-3.61634 52.875,-7.70083 62.5,-9.07663 9.625,-1.37581 20.2623,-2.97551 23.6384,-3.5549 6.6006,-1.13275 4.895,-1.58846 57.1116,15.25947 l 6.25,2.01659 0,93.91847 0,93.91847 -145.79621,0 -145.79621,0 3.04621,-6.40633 z m -38.45379,-23.7368 c -20.625,-8.22218 -50.96034,-20.27378 -67.41187,-26.78133 -24.49973,-9.6911 -29.56594,-12.01538 -28,-12.84586 1.05153,-0.55767 14.96187,-6.52072 30.91187,-13.25122 58.50477,-24.68753 69.42054,-29.28859 90.37028,-38.09156 11.75365,-4.93883 21.48601,-8.84631 21.62746,-8.68329 0.14145,0.16301 -0.1253,5.47139 -0.59279,11.79639 -0.46749,6.325 -1.51938,20.95 -2.33754,32.5 -0.81816,11.55 -2.2833,32.1375 -3.25588,45.75 -1.08686,15.21201 -2.16202,24.71267 -2.78993,24.65314 -0.56188,-0.0533 -17.8966,-6.8241 -38.5216,-15.04627 z m 322.7177,-346.57624 c -2.5166,-0.37963 -2.7303,-0.72339 -2.2384,-3.60017 1.0593,-6.1959 3.6257,-35.41421 4.5767,-52.10732 0.5304,-9.30978 1.1848,-17.14728 1.4542,-17.41667 0.2694,-0.26939 0.4898,16.2352 0.4898,36.67686 0,20.44167 -0.3375,37.09925 -0.75,37.01684 -0.4125,-0.0824 -2.002,-0.3387 -3.5323,-0.56954 z m -60.6099,-27.53237 c -7.3657,-14.43654 -19.1204,-37.49826 -26.12161,-51.24826 -35.91085,-70.52728 -42.24492,-82.5681 -43.90126,-83.45455 -2.07339,-1.10964 -2.32738,-3.0265 -4.57754,-34.54545 -0.82456,-11.55 -1.92921,-26.175 -2.45478,-32.5 -0.52557,-6.325 -1.25095,-16.1125 -1.61196,-21.75 -0.42501,-6.63688 -1.05899,-10.24892 -1.79852,-10.24694 -1.33791,0.004 -10.37875,2.78755 -62.64213,19.28957 -11.275,3.56004 -20.95,6.57888 -21.5,6.70851 -2.66568,0.6283 -3.7986,-0.47399 -6.42477,-6.25114 -1.56262,-3.4375 -8.33455,-17.5 -15.04873,-31.25 -6.71419,-13.75 -12.60572,-26.0125 -13.0923,-27.25 l -0.8847,-2.25 132.47525,0 132.47525,0 0,102.92857 c 0,83.67309 -0.2458,103.17578 -1.3138,104.25 -0.7227,0.72679 -11.8093,21.45721 -24.637,46.0676 -12.8277,24.61039 -23.824,45.42211 -24.4362,46.24826 -0.8936,1.20601 -3.7527,-3.67168 -14.5052,-24.74617 z m -1024.1078,-183.70631 0,-91.04195 76.55902,0 c 51.8034,0 76.3551,0.32994 75.92839,1.02037 -0.75596,1.22318 -16.00042,63.55242 -17.9425,73.36064 -0.77504,3.91422 -2.15634,7.62872 -3.2037,8.61521 -1.01266,0.95382 -30.97871,23.63874 -66.59121,50.41094 l -64.75,48.67674 0,-91.04195 z m 170.64185,2.20805 c -0.34091,-2.0625 -0.62479,-23.8875 -0.63084,-48.5 l -0.011,-44.75 52.01874,0 52.01875,0 -7.22941,6.75 c -3.97618,3.7125 -26.9033,25.5375 -50.94916,48.5 -24.04586,22.9625 -43.91718,41.75 -44.15849,41.75 -0.24131,0 -0.71767,-1.6875 -1.05858,-3.75 z"
         id="path4157"
         inkscape:connector-curvature="0" />
      <path
         style="fill:#368d47"
         d="m -663.77955,835.6122 c 0.005,-27.82952 0.30881,-36.83072 1.30908,-38.75 0.7166,-1.375 2.57411,-5.9875 4.12779,-10.25 1.55367,-4.2625 3.18168,-7.75 3.61778,-7.75 0.4361,0 10.97211,10.98783 23.41336,24.41739 12.44124,13.42957 24.28665,25.66841 26.32314,27.19742 2.03648,1.52902 13.82769,10.6994 26.20269,20.37863 12.375,9.67922 23.61263,18.36538 24.97251,19.30258 2.34255,1.61442 -0.48248,1.70398 -53.75,1.70398 l -56.22251,0 0.006,-36.25 z m 133.99384,33.87555 c 2.475,-1.27765 11.025,-6.38919 19,-11.35897 7.975,-4.96978 14.76896,-8.87865 15.0977,-8.68638 0.32873,0.19227 0.0104,4.52788 -0.70736,9.63469 -0.71777,5.10681 -1.06891,10.07261 -0.78031,11.03511 0.48693,1.62388 -0.83141,1.74815 -18.29264,1.72428 l -18.81739,-0.0257 4.5,-2.323 z m 666.45379,-4.03188 3.04621,-6.40633 10.5,-2.72455 c 40.99593,-10.63766 51.46082,-13.58626 52.16693,-14.69864 0.97885,-1.54205 0.95815,-0.53531 1.71755,-83.55149 0.49728,-54.36194 0.8707,-67.44489 1.94396,-68.10749 0.73064,-0.45109 6.58064,-1.5382 13,-2.41582 6.41936,-0.87761 31.92156,-4.55448 56.67156,-8.17082 24.75,-3.61634 52.875,-7.70083 62.5,-9.07663 9.625,-1.37581 20.267,-2.97634 23.6489,-3.55673 6.1208,-1.05044 6.2579,-1.0203 30,6.59261 13.1181,4.20633 25.9886,8.33076 28.6011,9.16541 l 4.75,1.51754 0,93.91964 0,93.91963 -145.79621,0 -145.79621,0 3.04621,-6.40633 z m -38.45379,-23.7368 c -20.625,-8.22218 -50.96034,-20.27378 -67.41187,-26.78133 -24.49973,-9.6911 -29.56594,-12.01538 -28,-12.84586 1.05153,-0.55767 14.96187,-6.52072 30.91187,-13.25122 58.50477,-24.68753 69.42054,-29.28859 90.37028,-38.09156 11.75365,-4.93883 21.48601,-8.84631 21.62746,-8.68329 0.14145,0.16301 -0.1253,5.47139 -0.59279,11.79639 -0.46749,6.325 -1.51938,20.95 -2.33754,32.5 -0.81816,11.55 -2.2833,32.1375 -3.25588,45.75 -1.08686,15.21201 -2.16202,24.71267 -2.78993,24.65314 -0.56188,-0.0533 -17.8966,-6.8241 -38.5216,-15.04627 z m -762,-557.81492 0,-91.04195 76.55902,0 c 51.8034,0 76.3551,0.32994 75.92839,1.02037 -0.75596,1.22318 -16.00042,63.55242 -17.9425,73.36064 -0.77504,3.91422 -2.15634,7.62872 -3.2037,8.61521 -1.01266,0.95382 -30.97871,23.63874 -66.59121,50.41094 l -64.75,48.67674 0,-91.04195 z m 170.64185,2.20805 c -0.34091,-2.0625 -0.62479,-23.8875 -0.63084,-48.5 l -0.011,-44.75 52.01874,0 52.01875,0 -7.22941,6.75 c -3.97618,3.7125 -26.9033,25.5375 -50.94916,48.5 -24.04586,22.9625 -43.91718,41.75 -44.15849,41.75 -0.24131,0 -0.71767,-1.6875 -1.05858,-3.75 z m 895.85815,-32.96183 c -1.65,-0.2267 -7.725,-1.25943 -13.5,-2.29496 -11.0274,-1.97735 -36.38,-6.57631 -41.5,-7.52808 -1.65,-0.30672 -16.44291,-3.01954 -32.87314,-6.02849 -16.43022,-3.00895 -30.26772,-5.71468 -30.75,-6.01274 -0.48227,-0.29807 -0.87686,-1.52958 -0.87686,-2.73669 0,-2.10801 6.23907,-22.61707 9.56352,-31.43721 l 1.6019,-4.25 65.41728,0 65.4173,0 0,28.39301 c 0,25.1264 -0.1844,28.46378 -1.603,29.00813 -2.3198,0.89019 -15.7166,3.62411 -16.897,3.44821 -0.55,-0.082 -2.35,-0.33449 -4,-0.56118 z"
         id="path4155"
         inkscape:connector-curvature="0" />
      <path
         style="fill:#2b803e"
         d="m -663.77955,835.6122 c 0.005,-27.82952 0.30881,-36.83072 1.30908,-38.75 0.7166,-1.375 2.57411,-5.9875 4.12779,-10.25 1.55367,-4.2625 3.18168,-7.75 3.61778,-7.75 0.4361,0 10.97211,10.98783 23.41336,24.41739 12.44124,13.42957 24.28665,25.66841 26.32314,27.19742 2.03648,1.52902 13.82769,10.6994 26.20269,20.37863 12.375,9.67922 23.61263,18.36538 24.97251,19.30258 2.34255,1.61442 -0.48248,1.70398 -53.75,1.70398 l -56.22251,0 0.006,-36.25 z m 133.99384,33.87555 c 2.475,-1.27765 11.025,-6.38919 19,-11.35897 7.975,-4.96978 14.76896,-8.87865 15.0977,-8.68638 0.32873,0.19227 0.0104,4.52788 -0.70736,9.63469 -0.71777,5.10681 -1.06891,10.07261 -0.78031,11.03511 0.48693,1.62388 -0.83141,1.74815 -18.29264,1.72428 l -18.81739,-0.0257 4.5,-2.323 z m 727.14225,-4.87555 c 1.09348,-3.9875 3.34404,-11.525 5.00125,-16.75 l 3.0131,-9.5 0.50024,-72 c 0.27513,-39.6 0.69428,-72.61073 0.93144,-73.35718 0.25778,-0.81133 9.57726,8.03041 23.17147,21.98365 59.5816,61.15518 82.40352,84.39632 83.12503,84.65196 1.02514,0.36323 2.24878,-2.52151 13.69164,-32.27843 5.28749,-13.75 14.13878,-36.7 19.66948,-51 5.5308,-14.3 11.9265,-30.88368 14.2127,-36.85262 2.2862,-5.96894 4.8058,-11.1959 5.5991,-11.61546 1.442,-0.76269 4.939,0.23411 40.6923,11.59911 l 18.25,5.80118 0,93.28389 0,93.2839 -114.92295,0 -114.92294,0 1.98814,-7.25 z m -861.14225,-580.70805 0,-91.04195 76.55902,0 c 51.8034,0 76.3551,0.32994 75.92839,1.02037 -0.75596,1.22318 -16.00042,63.55242 -17.9425,73.36064 -0.77504,3.91422 -2.15634,7.62872 -3.2037,8.61521 -1.01266,0.95382 -30.97871,23.63874 -66.59121,50.41094 l -64.75,48.67674 0,-91.04195 z m 170.64185,2.20805 c -0.34091,-2.0625 -0.62479,-23.8875 -0.63084,-48.5 l -0.011,-44.75 52.01874,0 52.01875,0 -7.22941,6.75 c -3.97618,3.7125 -26.9033,25.5375 -50.94916,48.5 -24.04586,22.9625 -43.91718,41.75 -44.15849,41.75 -0.24131,0 -0.71767,-1.6875 -1.05858,-3.75 z m 895.85815,-32.96183 c -1.65,-0.2267 -7.725,-1.25943 -13.5,-2.29496 -11.0274,-1.97735 -36.38,-6.57631 -41.5,-7.52808 -1.65,-0.30672 -16.44291,-3.01954 -32.87314,-6.02849 -16.43022,-3.00895 -30.26772,-5.71468 -30.75,-6.01274 -0.48227,-0.29807 -0.87686,-1.52958 -0.87686,-2.73669 0,-2.10801 6.23907,-22.61707 9.56352,-31.43721 l 1.6019,-4.25 65.41728,0 65.4173,0 0,28.39301 c 0,25.1264 -0.1844,28.46378 -1.603,29.00813 -2.3198,0.89019 -15.7166,3.62411 -16.897,3.44821 -0.55,-0.082 -2.35,-0.33449 -4,-0.56118 z"
         id="path4153"
         inkscape:connector-curvature="0" />
      <path
         style="fill:#52105d"
         d="m -663.77955,835.6122 c 0.005,-27.82952 0.30881,-36.83072 1.30908,-38.75 0.7166,-1.375 2.57411,-5.9875 4.12779,-10.25 1.55367,-4.2625 3.18168,-7.75 3.61778,-7.75 0.4361,0 10.97211,10.98783 23.41336,24.41739 12.44124,13.42957 24.28665,25.66841 26.32314,27.19742 2.03648,1.52902 13.82769,10.6994 26.20269,20.37863 12.375,9.67922 23.61263,18.36538 24.97251,19.30258 2.34255,1.61442 -0.48248,1.70398 -53.75,1.70398 l -56.22251,0 0.006,-36.25 z m 133.99384,33.87555 c 2.475,-1.27765 11.025,-6.38919 19,-11.35897 7.975,-4.96978 14.76896,-8.87865 15.0977,-8.68638 0.32873,0.19227 0.0104,4.52788 -0.70736,9.63469 -0.71777,5.10681 -1.06891,10.07261 -0.78031,11.03511 0.48693,1.62388 -0.83141,1.74815 -18.29264,1.72428 l -18.81739,-0.0257 4.5,-2.323 z m 751.91022,-11.21532 c -9.02562,-7.47438 -16.55006,-13.96891 -16.72099,-14.4323 -0.54689,-1.48269 -1.25023,-1.21109 92.31077,-35.64516 8.25,-3.03632 15.83357,-6.26476 16.85238,-7.17432 2.67979,-2.39241 3.49342,-4.21056 13.4961,-30.15845 4.98247,-12.925 13.82892,-35.875 19.65892,-51 12.7175,-32.99407 19.557,-50.38553 19.9868,-50.82231 0.1744,-0.17727 12.4803,3.54497 27.3465,8.27165 14.8661,4.72669 27.6211,8.47173 28.3443,8.32231 1.0778,-0.22264 1.361,16.55254 1.5702,92.97835 l 0.2551,93.25 -93.34493,0 -93.34494,0 -16.41021,-13.58977 z m -885.91022,-574.36828 0,-91.04195 76.55902,0 c 51.8034,0 76.3551,0.32994 75.92839,1.02037 -0.75596,1.22318 -16.00042,63.55242 -17.9425,73.36064 -0.77504,3.91422 -2.15634,7.62872 -3.2037,8.61521 -1.01266,0.95382 -30.97871,23.63874 -66.59121,50.41094 l -64.75,48.67674 0,-91.04195 z m 170.64185,2.20805 c -0.34091,-2.0625 -0.62479,-23.8875 -0.63084,-48.5 l -0.011,-44.75 52.01874,0 52.01875,0 -7.22941,6.75 c -3.97618,3.7125 -26.9033,25.5375 -50.94916,48.5 -24.04586,22.9625 -43.91718,41.75 -44.15849,41.75 -0.24131,0 -0.71767,-1.6875 -1.05858,-3.75 z m 895.85815,-32.96183 c -1.65,-0.2267 -7.725,-1.25943 -13.5,-2.29496 -11.0274,-1.97735 -36.38,-6.57631 -41.5,-7.52808 -1.65,-0.30672 -16.44291,-3.01954 -32.87314,-6.02849 -16.43022,-3.00895 -30.26772,-5.71468 -30.75,-6.01274 -0.48227,-0.29807 -0.87686,-1.52958 -0.87686,-2.73669 0,-2.10801 6.23907,-22.61707 9.56352,-31.43721 l 1.6019,-4.25 65.41728,0 65.4173,0 0,28.39301 c 0,25.1264 -0.1844,28.46378 -1.603,29.00813 -2.3198,0.89019 -15.7166,3.62411 -16.897,3.44821 -0.55,-0.082 -2.35,-0.33449 -4,-0.56118 z"
         id="path4151"
         inkscape:connector-curvature="0" />
      <path
         style="fill:#16662e"
         d="m -663.75962,837.09437 c -0.0656,-33.09187 0.40236,-42.775 1.94658,-40.27638 0.37973,0.6144 1.28809,-1.3743 2.01859,-4.41934 0.73049,-3.04505 1.63507,-5.53645 2.01017,-5.53645 0.3751,0 1.24195,-1.86895 1.92633,-4.15322 l 1.24433,-4.15322 3.91396,4.15525 c 2.15267,2.28538 3.91395,4.67933 3.91395,5.31988 0,0.64055 0.28561,0.87903 0.63469,0.52996 0.34908,-0.34908 1.8941,0.95007 3.43338,2.88701 1.53929,1.93693 3.95368,4.43021 5.36532,5.5406 1.41163,1.1104 2.56661,2.6878 2.56661,3.50534 0,0.81754 0.45,1.20832 1,0.8684 0.55,-0.33992 1.00463,-0.25398 1.01028,0.19098 0.006,0.44496 2.25566,3.16613 5,6.04704 2.74435,2.88091 4.98972,5.71997 4.98972,6.30902 0,0.58905 0.45,0.79288 1,0.45296 0.55,-0.33992 1,-0.22351 1,0.25868 0,1.18436 20.81208,22.24132 21.98267,22.24132 0.50953,0 2.02903,1.0125 3.37667,2.25 2.81551,2.58541 3.85453,3.41157 8.54519,6.79458 1.8725,1.35048 4.41716,3.35542 5.6548,4.45542 3.27988,2.91511 4.9761,4.24173 8.65431,6.76859 3.45047,2.3704 5.63307,4.14399 11.63934,9.45821 2.00586,1.77474 4.40796,3.23724 5.338,3.25 0.93004,0.0128 1.9691,0.4732 2.30902,1.0232 0.40919,0.66208 -18.14044,1 -54.89346,1 l -55.51149,0 -0.069,-34.76783 z m 885.88413,21.17806 c -9.02562,-7.47438 -16.55006,-13.96891 -16.72099,-14.4323 -0.54689,-1.48269 -1.25023,-1.21109 92.31077,-35.64516 8.25,-3.03632 15.83357,-6.26476 16.85238,-7.17432 2.67979,-2.39241 3.49342,-4.21056 13.4961,-30.15845 4.98247,-12.925 13.82892,-35.875 19.65892,-51 12.7175,-32.99407 19.557,-50.38553 19.9868,-50.82231 0.1744,-0.17727 12.4803,3.54497 27.3465,8.27165 14.8661,4.72669 27.6211,8.47173 28.3443,8.32231 1.0778,-0.22264 1.361,16.55254 1.5702,92.97835 l 0.2551,93.25 -93.34493,0 -93.34494,0 -16.41021,-13.58977 z"
         id="path4149"
         inkscape:connector-curvature="0" />
    </g>
  </g>
</svg>
